<svg width="154" height="155" viewBox="0 0 154 155" fill="none" xmlns="http://www.w3.org/2000/svg">
<rect width="154" height="154" transform="translate(0 0.600098)" fill="#FFD100"/>
<path d="M58.5601 17.9103V138.32H73.68V72.1403C73.68 72.1403 87.5701 69.9703 93.1901 69.9703C96.8501 69.9703 100.21 70.3403 102.61 71.4303C105.06 72.3903 106.43 73.5403 107.69 74.9803C108.95 76.4103 109.85 78.2203 110.54 80.4503C111.23 82.6803 111.55 85.2403 111.67 86.6703C111.78 88.1003 111.84 89.8503 111.84 91.9103V138.21H126.96V91.7403C126.96 84.1803 126.3 78.0803 124.98 73.4403C123.66 68.8003 120.54 64.8203 115.61 61.5003C110.11 57.7203 99.25 54.9903 88.28 55.8303C78.22 56.6003 73.67 57.7103 73.67 57.7103V14.7803L58.55 17.9103H58.5601Z" fill="#231F20"/>
<path d="M28.0699 123.11V138.3H43.2599V123.11H28.0699Z" fill="#231F20"/>
</svg>
