<svg width="90" height="34" viewBox="0 0 90 34" fill="none" xmlns="http://www.w3.org/2000/svg">
<path d="M21.1 20.8C21.1 22 20.9 23.1 20.5 24.1C20.1 25.1 19.5 25.9 18.8 26.6C18.1 27.3 17.3 27.8 16.3 28.2C15.4 28.6 14.4 28.7 13.4 28.7C12.4 28.7 11.4 28.5 10.5 28.2C9.6 27.8 8.7 27.3 8 26.6C7.3 25.9 6.7 25.1 6.3 24.1C5.9 23.1 5.7 22 5.7 20.8V0H0V20.9C0 23.5 0.6 25.8 1.7 27.8C2.8 29.8 4.4 31.3 6.4 32.3C8.4 33.4 10.7 33.9 13.4 33.9C16 33.9 18.4 33.4 20.4 32.3C22.4 31.2 24 29.7 25.1 27.8C26.2 25.8 26.8 23.6 26.8 20.9V0H21.2V20.8H21.1Z" fill="#161616"/>
<path d="M40 0L29.5 33.3H35.2L37.5 26.1H50.6L52.9 33.3H58.6L48.1 0H40ZM39.1 20.9L44 5.4L48.9 20.9H39.1Z" fill="#161616"/>
<path d="M89.2 0H82.4L74.6 16.6L66.8 0H60L67.8 16.6L60 33.2H66.8L74.6 16.6L82.4 33.2H89.2L81.4 16.6L89.2 0Z" fill="#0060AB"/>
</svg>
