<svg width="162" height="147" viewBox="0 0 162 147" fill="none" xmlns="http://www.w3.org/2000/svg">
<rect width="162" height="147" fill="#E11B22"/>
<path fill-rule="evenodd" clip-rule="evenodd" d="M32.1799 87.75H37.6699C38.8599 87.75 39.8299 88.09 40.5799 88.79C41.3099 89.48 41.6899 90.3 41.6899 91.28C41.6899 92.63 40.9799 93.63 39.5699 94.28C40.1899 94.56 40.7799 95.31 41.3299 96.55C41.8899 97.78 42.4199 98.93 42.9399 100.03H39.5699C39.3699 99.63 39.0199 98.85 38.5299 97.72C38.0399 96.58 37.6099 95.86 37.2499 95.53C36.9099 95.21 36.5199 95.05 36.1099 95.05H35.2299V100.04H32.1699V87.76L32.1799 87.75ZM35.2299 90V92.8H36.8499C37.3699 92.8 37.7699 92.68 38.0699 92.44C38.3799 92.2 38.5299 91.85 38.5299 91.4C38.5299 90.47 37.9499 90.01 36.7799 90.01H35.2299V90Z" fill="white"/>
<path fill-rule="evenodd" clip-rule="evenodd" d="M53.8999 87.75L59.3499 100.03H56.0599L55.0499 97.61H49.5599L48.6499 100.03H45.3999L50.3499 87.75H53.9099H53.8999ZM54.1399 95.45L52.1599 90.68L50.3599 95.45H54.1399Z" fill="white"/>
<path fill-rule="evenodd" clip-rule="evenodd" d="M74.4999 87.75V100.03H71.9199L65.1199 92.16V100.03H62.0599V87.75H64.8699L71.4399 95.26V87.75H74.4999Z" fill="white"/>
<path d="M96.94 87.75H93.88V100.03H96.94V87.75Z" fill="white"/>
<path fill-rule="evenodd" clip-rule="evenodd" d="M109.97 88.5401V90.9401C108.33 90.2101 107.04 89.8401 106.07 89.8401C105.52 89.8401 105.08 89.9401 104.74 90.1201C104.42 90.2901 104.26 90.5401 104.26 90.8401C104.26 91.0701 104.38 91.3001 104.61 91.5101C104.84 91.7201 105.42 91.9901 106.33 92.3301C107.23 92.6601 107.97 92.9701 108.51 93.2601C109.05 93.5501 109.53 93.9501 109.91 94.4701C110.31 94.9901 110.51 95.6501 110.51 96.4501C110.51 97.5901 110.08 98.5001 109.21 99.1601C108.35 99.8401 107.21 100.17 105.8 100.17C104.28 100.17 102.8 99.7701 101.37 98.9901V96.3501C102.2 96.8901 102.93 97.3001 103.56 97.5501C104.18 97.8001 104.86 97.9301 105.57 97.9301C106.77 97.9301 107.38 97.5501 107.38 96.7901C107.38 96.5301 107.25 96.2901 107.01 96.0601C106.77 95.8301 106.19 95.5601 105.27 95.2401C104.35 94.9001 103.63 94.6001 103.09 94.3201C102.55 94.0301 102.09 93.6301 101.69 93.1201C101.31 92.6001 101.11 91.9301 101.11 91.1101C101.11 90.0501 101.54 89.2001 102.39 88.5601C103.24 87.9101 104.37 87.5801 105.8 87.5801C107.12 87.5801 108.5 87.9001 109.97 88.5301V88.5401Z" fill="white"/>
<path fill-rule="evenodd" clip-rule="evenodd" d="M134.56 87.5903C136.66 87.5903 138.35 88.2203 139.64 89.5003C140.94 90.7603 141.59 92.2203 141.59 93.9003C141.59 95.5803 140.94 97.0703 139.62 98.3303C138.31 99.5803 136.62 100.2 134.57 100.2C132.52 100.2 130.79 99.5803 129.48 98.3403C128.18 97.1003 127.53 95.6203 127.53 93.9103C127.53 92.2003 128.17 90.7703 129.47 89.5003C130.76 88.2403 132.46 87.6103 134.57 87.6103L134.56 87.5903ZM134.56 97.6403C135.72 97.6403 136.66 97.3003 137.36 96.6103C138.08 95.9203 138.43 95.0103 138.43 93.8903C138.43 92.7703 138.08 91.8703 137.36 91.1803C136.66 90.4903 135.72 90.1503 134.56 90.1503C133.4 90.1503 132.45 90.4903 131.74 91.1803C131.03 91.8703 130.67 92.7703 130.67 93.8903C130.67 95.0103 131.03 95.9203 131.74 96.6103C132.45 97.3003 133.39 97.6403 134.56 97.6403Z" fill="white"/>
<path fill-rule="evenodd" clip-rule="evenodd" d="M28.73 87.7402C28.66 88.4602 28.54 89.2002 28.39 89.9802H23.32V92.7302H28.11C28.04 93.4402 27.93 94.2002 27.77 94.9802H23.32V100.03H20.26V87.7402H28.72H28.73Z" fill="white"/>
<path fill-rule="evenodd" clip-rule="evenodd" d="M28.81 68.9499L30.58 69.2699V75.9199C30.58 76.8599 30.51 77.5699 30.36 78.0499C30.23 78.5399 30.06 78.9399 29.86 79.2499C29.66 79.5699 29.41 79.8599 29.11 80.1099C28.14 80.9499 26.87 81.3699 25.3 81.3699C23.73 81.3699 22.41 80.9499 21.45 80.1199C21.15 79.8599 20.9 79.5699 20.69 79.2499C20.5 78.9299 20.33 78.5399 20.19 78.0799C20.07 77.6199 20 76.8899 20 75.8999V69.2999L21.77 68.8799V75.9299C21.77 77.0799 21.91 77.8799 22.17 78.3399C22.43 78.7899 22.83 79.1499 23.36 79.4199C23.91 79.6899 24.55 79.8299 25.28 79.8299C26.32 79.8299 27.17 79.5599 27.82 79.0099C28.17 78.7199 28.41 78.3699 28.57 77.9699C28.72 77.5799 28.8 76.8999 28.8 75.9299V68.9599L28.81 68.9499Z" fill="white"/>
<path fill-rule="evenodd" clip-rule="evenodd" d="M43.8 68.9502H45.47V81.2202H43.96L35.74 71.7702V81.2202H34.09V68.9502H35.5L43.8 78.4702V68.9502Z" fill="white"/>
<path d="M50.89 68.9502H49.13V81.2202H50.89V68.9502Z" fill="white"/>
<path fill-rule="evenodd" clip-rule="evenodd" d="M62.41 68.9502H64.16L58.98 81.2802H58.58L53.28 68.9502H55.05L58.75 77.5702L62.41 68.9502Z" fill="white"/>
<path fill-rule="evenodd" clip-rule="evenodd" d="M66.54 68.9502H73.5V70.5002H68.29V74.2502H73.33V75.8202H68.29V79.6402H73.67V81.2002H66.54V68.9502Z" fill="white"/>
<path fill-rule="evenodd" clip-rule="evenodd" d="M76.62 81.2202V68.9502H79.69C80.93 68.9502 81.92 69.2502 82.65 69.8702C83.39 70.4802 83.75 71.3202 83.75 72.3602C83.75 73.0702 83.57 73.6902 83.21 74.2102C82.85 74.7302 82.34 75.1202 81.67 75.3802C82.06 75.6302 82.45 76.0002 82.81 76.4302C83.19 76.8802 83.72 77.6602 84.4 78.7602C84.82 79.4502 85.17 79.9802 85.43 80.3302L86.08 81.2102H83.99L83.45 80.4002C83.45 80.4002 83.4 80.3202 83.35 80.2502L83 79.7702L82.46 78.8702L81.87 77.9202C81.51 77.4202 81.18 77.0102 80.87 76.7102C80.57 76.4102 80.3 76.1902 80.05 76.0702C79.81 75.9402 79.4 75.8702 78.83 75.8702H78.37V81.2102H76.62V81.2202ZM78.9 70.4302H78.37V74.3202H79.04C79.93 74.3202 80.54 74.2302 80.87 74.0902C81.2 73.9302 81.46 73.7102 81.65 73.4102C81.84 73.1002 81.92 72.7402 81.92 72.3502C81.92 71.9602 81.82 71.6202 81.62 71.3102C81.41 70.9902 81.12 70.7702 80.75 70.6402C80.38 70.5002 79.76 70.4402 78.9 70.4402V70.4302Z" fill="white"/>
<path fill-rule="evenodd" clip-rule="evenodd" d="M91.51 76.0703L90.18 75.2603C89.34 74.7603 88.74 74.2603 88.38 73.7603C88.02 73.2603 87.85 72.6903 87.85 72.0503C87.85 71.0803 88.18 70.3003 88.86 69.6903C89.53 69.0903 90.4 68.7803 91.47 68.7803C92.54 68.7803 93.45 69.0703 94.3 69.6403V71.6403C93.41 70.7803 92.45 70.3603 91.44 70.3603C90.86 70.3603 90.4 70.4903 90.03 70.7703C89.66 71.0303 89.48 71.3703 89.48 71.7903C89.48 72.1603 89.61 72.4903 89.88 72.8203C90.15 73.1403 90.59 73.4903 91.19 73.8303L92.54 74.6203C94.03 75.5103 94.79 76.6503 94.79 78.0303C94.79 79.0203 94.45 79.8203 93.79 80.4303C93.13 81.0503 92.27 81.3503 91.23 81.3503C90.01 81.3503 88.9 80.9803 87.92 80.2303V78.0003C88.87 79.2003 89.96 79.8103 91.21 79.8103C91.77 79.8103 92.22 79.6603 92.58 79.3503C92.95 79.0403 93.14 78.6503 93.14 78.1903C93.14 77.4403 92.6 76.7303 91.52 76.0603L91.51 76.0703Z" fill="white"/>
<path d="M99.52 68.9502H97.75V81.2202H99.52V68.9502Z" fill="white"/>
<path fill-rule="evenodd" clip-rule="evenodd" d="M103.28 81.2002V68.9502H107.42C109.09 68.9502 110.41 69.2002 111.39 69.7002C112.36 70.2002 113.13 70.9302 113.72 71.9102C114.28 72.8802 114.57 73.9402 114.57 75.0902C114.57 75.9102 114.41 76.7002 114.09 77.4402C113.78 78.1902 113.32 78.8602 112.74 79.4202C112.14 80.0002 111.45 80.4502 110.66 80.7502C110.2 80.9302 109.78 81.0602 109.38 81.1102C109 81.1702 108.25 81.2002 107.16 81.2002H103.28ZM107.23 70.5002H105.03V79.6402H107.28C108.16 79.6402 108.84 79.5702 109.33 79.4602C109.82 79.3402 110.22 79.1902 110.55 79.0002C110.87 78.8202 111.17 78.5902 111.44 78.3202C112.3 77.4402 112.75 76.3302 112.75 74.9902C112.75 73.6502 112.31 72.6002 111.41 71.7602C111.08 71.4502 110.71 71.1902 110.27 70.9902C109.85 70.7902 109.44 70.6602 109.07 70.6002C108.68 70.5402 108.08 70.5002 107.23 70.5002Z" fill="white"/>
<path fill-rule="evenodd" clip-rule="evenodd" d="M121.16 68.8701H122.4L127.89 81.2201H126.09L124.46 77.5801H119.22L117.68 81.2201H115.88L121.15 68.8701H121.16ZM123.75 76.0201L121.77 71.5701L119.94 76.0201H123.76H123.75Z" fill="white"/>
<path fill-rule="evenodd" clip-rule="evenodd" d="M130.3 81.2002V68.9502H134.44C136.11 68.9502 137.44 69.2002 138.41 69.7002C139.38 70.2002 140.15 70.9302 140.73 71.9102C141.31 72.8802 141.59 73.9402 141.59 75.0902C141.59 75.9102 141.44 76.7002 141.12 77.4402C140.8 78.1902 140.35 78.8602 139.77 79.4202C139.17 80.0002 138.47 80.4502 137.68 80.7502C137.22 80.9302 136.8 81.0602 136.41 81.1102C136.02 81.1702 135.29 81.2002 134.2 81.2002H130.31H130.3ZM134.26 70.5002H132.06V79.6402H134.31C135.19 79.6402 135.88 79.5702 136.36 79.4602C136.84 79.3402 137.25 79.1902 137.57 79.0002C137.9 78.8202 138.2 78.5902 138.47 78.3202C139.34 77.4402 139.77 76.3302 139.77 74.9902C139.77 73.6502 139.32 72.6002 138.44 71.7602C138.12 71.4502 137.74 71.1902 137.3 70.9902C136.88 70.7902 136.47 70.6602 136.09 70.6002C135.72 70.5402 135.1 70.5002 134.26 70.5002Z" fill="white"/>
<path d="M125.72 107.05H122.67V119.33H125.72V107.05Z" fill="white"/>
<path fill-rule="evenodd" clip-rule="evenodd" d="M43.72 107.05L49.17 119.33H45.88L44.8699 116.91H39.38L38.46 119.33H35.21L40.17 107.05H43.72ZM43.97 114.75L41.9799 109.97L40.18 114.75H43.96H43.97Z" fill="white"/>
<path fill-rule="evenodd" clip-rule="evenodd" d="M50.9199 107.05H56.3999C57.5899 107.05 58.5599 107.39 59.2999 108.08C60.0499 108.77 60.4199 109.6 60.4199 110.58C60.4199 111.93 59.7099 112.93 58.2999 113.58C58.9299 113.86 59.5099 114.61 60.0599 115.85C60.6099 117.07 61.1599 118.23 61.6799 119.33H58.2999C58.0999 118.92 57.7599 118.15 57.2599 117.02C56.7599 115.88 56.3399 115.15 55.9799 114.83C55.6299 114.5 55.2499 114.34 54.8499 114.34H53.9699V119.33H50.9099V107.05H50.9199ZM53.9799 109.3V112.09H55.5999C56.1099 112.09 56.5199 111.97 56.8199 111.73C57.1199 111.48 57.2799 111.13 57.2799 110.68C57.2799 109.75 56.6899 109.3 55.5299 109.3H53.9799Z" fill="white"/>
<path fill-rule="evenodd" clip-rule="evenodd" d="M63.61 107.05H69.1C70.3 107.05 71.26 107.39 72 108.08C72.75 108.77 73.12 109.6 73.12 110.58C73.12 111.93 72.42 112.93 71.01 113.58C71.63 113.86 72.22 114.61 72.77 115.85C73.33 117.07 73.86 118.23 74.38 119.33H71.01C70.81 118.92 70.47 118.15 69.96 117.02C69.47 115.88 69.05 115.15 68.69 114.83C68.33 114.5 67.95 114.34 67.54 114.34H66.67V119.33H63.61V107.05ZM66.67 109.3V112.09H68.28C68.8 112.09 69.21 111.97 69.51 111.73C69.81 111.48 69.96 111.13 69.96 110.68C69.96 109.75 69.38 109.3 68.21 109.3H66.67Z" fill="white"/>
<path fill-rule="evenodd" clip-rule="evenodd" d="M82.15 106.89C84.25 106.89 85.95 107.52 87.24 108.78C88.53 110.05 89.18 111.52 89.18 113.19C89.18 114.86 88.52 116.36 87.21 117.61C85.9 118.85 84.21 119.49 82.15 119.49C80.09 119.49 78.37 118.87 77.07 117.63C75.77 116.39 75.11 114.91 75.11 113.2C75.11 111.49 75.75 110.05 77.05 108.78C78.35 107.52 80.05 106.9 82.15 106.9V106.89ZM82.15 116.94C83.31 116.94 84.25 116.6 84.96 115.91C85.67 115.22 86.03 114.32 86.03 113.19C86.03 112.07 85.67 111.16 84.96 110.47C84.25 109.78 83.32 109.45 82.15 109.45C80.98 109.45 80.04 109.79 79.33 110.47C78.63 111.16 78.27 112.07 78.27 113.19C78.27 114.31 78.63 115.21 79.33 115.91C80.05 116.6 80.99 116.94 82.15 116.94Z" fill="white"/>
<path fill-rule="evenodd" clip-rule="evenodd" d="M141.36 107.05V119.33H138.78L131.99 111.46V119.33H128.93V107.05H131.74L138.3 114.56V107.05H141.36Z" fill="white"/>
<path fill-rule="evenodd" clip-rule="evenodd" d="M23.33 111.67V119.36C22.36 119.25 21.33 119.09 20.26 118.87V107.05H22.93L26.88 111.61L30.84 107.05H33.51L33.49 118.87C33.49 118.87 32.49 119.17 30.73 119.36H30.43V111.67L27.11 115.53H26.64L23.32 111.67H23.33Z" fill="white"/>
<path d="M119.58 113.84C119.58 117.15 116.75 119.49 113.44 119.49C109.91 119.49 107.31 117.15 107.31 113.84V107.57C107.31 107.57 108.34 107.27 110.16 107.07H110.38V114.12C110.38 114.97 110.66 115.67 111.21 116.18C111.77 116.69 112.5 116.95 113.41 116.95C114.32 116.95 115.11 116.69 115.67 116.16C116.23 115.63 116.52 114.88 116.52 113.91V107.1C117.48 107.2 118.5 107.35 119.57 107.57V113.84H119.58Z" fill="white"/>
<path fill-rule="evenodd" clip-rule="evenodd" d="M125.22 89.5103C123.88 88.1203 122.32 87.5903 120.49 87.5903C116.33 87.5903 113.36 90.4103 113.36 94.0103C113.36 97.8003 116.54 100.18 120.49 100.18C122.47 100.18 124.31 99.6903 125.52 98.1803L123.55 96.1603C122.65 97.1903 121.59 97.6703 120.52 97.6303C118.18 97.5603 116.48 95.8803 116.53 93.8803C116.58 91.3103 118.91 90.1303 120.52 90.1503C121.45 90.1603 122.37 90.4003 123.36 91.3503L125.23 89.5103H125.22Z" fill="white"/>
<path fill-rule="evenodd" clip-rule="evenodd" d="M123.03 105.68H125.49L128 103.11H124.79L123.03 105.68Z" fill="white"/>
<path fill-rule="evenodd" clip-rule="evenodd" d="M89.97 89.5103C88.63 88.1203 87.06 87.5903 85.24 87.5903C81.09 87.5903 78.11 90.4103 78.11 94.0103C78.11 97.8003 81.29 100.18 85.24 100.18C87.23 100.18 89.06 99.6903 90.28 98.1803L88.3 96.1603C87.4 97.1903 86.34 97.6703 85.26 97.6303C82.93 97.5603 81.22 95.8803 81.27 93.8803C81.33 91.3103 83.66 90.1303 85.26 90.1503C86.19 90.1603 87.1 90.4003 88.1 91.3503L89.97 89.5103Z" fill="white"/>
<path d="M58.6299 45.2303C58.6299 55.6103 49.7799 62.9603 39.3999 62.9603C28.3399 62.9603 20.1699 55.6103 20.1699 45.2303L20.1899 25.5403C20.1899 25.5403 23.4299 24.6003 29.0999 24.0103H29.7799V46.1103C29.7799 48.7903 30.6599 50.9403 32.3999 52.5503C34.1499 54.1603 36.4599 54.9703 39.3099 54.9703C42.1599 54.9703 44.6299 54.1403 46.3899 52.5003C48.1599 50.8403 49.0599 48.5003 49.0599 45.4503V24.0803C52.0799 24.4003 55.2799 24.8703 58.6299 25.5403V45.2303Z" fill="white"/>
<path fill-rule="evenodd" clip-rule="evenodd" d="M93.34 24C93.11 26.25 92.76 28.58 92.27 31.02L76.44 31.04V39.63H91.42C91.18 41.84 90.84 44.21 90.34 46.66L76.44 46.68V62.45H66.85V24H93.34Z" fill="white"/>
<path fill-rule="evenodd" clip-rule="evenodd" d="M109.71 38.4V62.32C106.68 61.96 103.49 61.5 100.16 60.82V24H108.48L120.78 38.21L133.09 24H141.41L141.36 60.82C141.36 60.82 138.24 61.72 132.78 62.32H131.85V38.4L121.5 50.42H120.05L109.7 38.4H109.71Z" fill="white"/>
<path fill-rule="evenodd" clip-rule="evenodd" d="M98 109.44C96.83 109.44 95.89 109.79 95.18 110.49C94.47 111.18 94.1 112.09 94.1 113.23C94.1 114.37 94.46 115.27 95.18 115.95C95.89 116.64 96.83 116.99 98 116.99C99.17 116.99 100.08 116.65 100.81 115.98C101.53 115.29 101.88 114.38 101.88 113.23C101.88 112.08 101.52 111.16 100.79 110.47C100.06 109.78 99.13 109.45 98 109.45V109.44ZM105.01 119.83L105.21 120.09L102.82 122.12C102.16 122.07 101.49 121.95 100.78 121.74C100.12 121.55 99.45 121.29 98.77 120.97C98.12 120.66 97.49 120.3 96.84 119.88C96.38 119.57 95.82 119.3 95.18 119.06C94.64 118.87 94.13 118.6 93.64 118.24C93.13 117.88 92.69 117.45 92.3 116.96C91.88 116.43 91.57 115.87 91.34 115.27C91.09 114.6 90.98 113.93 90.98 113.23C90.98 111.53 91.64 110.05 92.97 108.77C94.31 107.49 96 106.86 98.05 106.86C100.1 106.86 101.82 107.49 103.11 108.77C104.41 110.04 105.06 111.49 105.06 113.12C105.06 114.44 104.65 115.66 103.82 116.77C103 117.87 101.89 118.65 100.49 119.09C101.55 119.69 102.67 120.01 103.83 120.01C104.28 120.01 104.68 119.94 105.02 119.84L105.01 119.83Z" fill="white"/>
</svg>
