<svg xmlns="http://www.w3.org/2000/svg" width="48" height="55" viewBox="0 0 48 55" fill="none"><mask id="mask0_564_121812" style="mask-type:alpha" maskUnits="userSpaceOnUse" x="15" y="14" width="33" height="41"><path d="M25.2571 23.1869H31.0654C39.7761 23.1869 46.8375 30.2482 46.8375 38.9589C46.8375 47.6696 39.7761 54.731 31.0654 54.731C23.3212 54.731 16.8806 49.1495 15.5468 41.7899L23.0563 41.7899C24.2222 45.0884 27.368 47.4516 31.0657 47.4516C35.756 47.4516 39.5583 43.6493 39.5583 38.9589C39.5583 34.3155 35.8317 30.5424 31.2061 30.4674L31.1719 30.4671L30.6025 33.432H23.2944L25.2571 23.1869ZM47.1974 14.2898L45.7443 21.5692H25.5607L26.9644 14.2898H47.1974Z" fill="white"></path></mask><g mask="url(#mask0_564_121812)"><path d="M25.2562 23.1864H31.0645C39.7751 23.1864 46.8365 30.2478 46.8365 38.9584C46.8365 47.6691 39.7751 54.7305 31.0645 54.7305C23.3202 54.7305 16.8796 49.149 15.5458 41.7894L23.0554 41.7894C24.2213 45.0879 27.367 47.4511 31.0647 47.4511C35.7551 47.4511 39.5574 43.6488 39.5574 38.9584C39.5574 34.315 35.8307 30.5419 31.2052 30.4669L31.1709 30.4666L30.6015 33.4315H23.2934L25.2562 23.1864ZM47.1964 14.2893L45.7433 21.5687H25.5598L26.9635 14.2893H47.1964Z" fill="url(#paint0_linear_564_121812)"></path><path fill-rule="evenodd" clip-rule="evenodd" d="M39.1681 36.3972C39.5955 37.6673 39.8271 39.0273 39.8271 40.4414C39.8271 47.4397 34.1539 53.113 27.1556 53.113C20.1573 53.113 14.484 47.4397 14.484 40.4414C14.484 39.0273 14.7157 37.6673 15.1431 36.3972H39.1681Z" fill="url(#paint1_linear_564_121812)"></path></g><path fill-rule="evenodd" clip-rule="evenodd" d="M35.2402 0C35.8214 0 36.3991 0.0144789 36.9732 0.0430956L34.5627 12.6716H27.2802L28.1179 8.23017C20.3089 10.3635 13.9131 15.9196 10.6425 23.186L23.6058 23.1863L22.2158 30.4657L8.54156 30.4656C8.36876 31.699 8.27941 32.9592 8.27941 34.2402C8.27941 35.7086 8.3968 37.1495 8.6227 38.5542L1.26917 38.5543C1.09153 37.1412 1 35.7014 1 34.2402C1 15.3299 16.3299 0 35.2402 0Z" fill="url(#paint2_linear_564_121812)"></path><defs><linearGradient id="paint0_linear_564_121812" x1="45.1855" y1="44.9419" x2="23.0844" y2="19.3672" gradientUnits="userSpaceOnUse"><stop stop-color="#06BEF3"></stop><stop offset="0.401492" stop-color="#00C2E8"></stop><stop offset="1" stop-color="#0EF197"></stop></linearGradient><linearGradient id="paint1_linear_564_121812" x1="42.7189" y1="47.8661" x2="20.3319" y2="41.0572" gradientUnits="userSpaceOnUse"><stop stop-color="#264ECE"></stop><stop offset="1" stop-color="#00D1F9"></stop></linearGradient><linearGradient id="paint2_linear_564_121812" x1="28.3881" y1="22.126" x2="19.7503" y2="13.88" gradientUnits="userSpaceOnUse"><stop stop-color="#ABBAEF"></stop><stop offset="1" stop-color="white"></stop></linearGradient></defs></svg>