<svg width="204" height="51" viewBox="0 0 204 51" fill="none" xmlns="http://www.w3.org/2000/svg">
<path d="M90.3201 7.83002H82.74V10.46C80.58 7.51002 77.3801 7.03002 75.3801 7.03002C72.1201 7.03002 69.2701 8.18002 67.2201 10.24C65.0701 12.39 63.6001 15.75 63.6001 19.7C63.6001 22.8 64.5401 25.86 67.0101 28.48C69.5801 31.22 72.4201 32.06 75.7901 32.06C77.7401 32.06 80.6801 31.59 82.7301 28.44V31.27H90.3101V7.83002H90.3201ZM81.37 23.91C80.37 24.91 78.9501 25.54 77.4201 25.54C75.6401 25.54 74.01 24.79 72.96 23.69C72.28 22.96 71.3801 21.59 71.3801 19.48C71.3801 17.37 72.33 16.01 73.11 15.23C74.11 14.23 75.64 13.55 77.27 13.55C78.64 13.55 80.3201 14.07 81.4701 15.17C82.5701 16.23 83.2001 17.8 83.2001 19.48C83.2001 21.49 82.37 22.96 81.37 23.91ZM157.31 9.45002C155.89 8.08002 153.58 7.24002 150.74 7.24002C148.9 7.24002 147.37 7.56002 145.75 8.56002C144.22 9.51002 143.33 10.61 142.75 11.56C142.12 10.14 141.12 8.99002 139.91 8.30002C138.33 7.35002 136.49 7.25002 135.5 7.25002C133.71 7.25002 130.87 7.62002 128.92 10.57V7.83002H121.35V31.29H128.92V19.3C128.92 18.51 128.98 15.88 130.39 14.52C131.13 13.83 132.02 13.57 133.02 13.57C133.81 13.57 134.76 13.72 135.54 14.52C136.7 15.68 136.75 17.52 136.75 19.09V31.29H144.32V19.61C144.32 18.09 144.48 16.24 145.48 14.98C146.11 14.14 147.16 13.56 148.43 13.56C149.53 13.56 150.53 14.03 151.17 14.82C152.17 16.08 152.17 18.19 152.17 19.39V31.28H159.74V16.45C159.74 14.77 159.58 11.61 157.32 9.46002L157.31 9.45002ZM188 20.07C188 17.17 187.48 13.48 184.68 10.55C181.78 7.50002 178 7.02002 175.38 7.02002C172.76 7.02002 169.23 7.56002 166.39 10.38C164.03 12.8 162.81 16.29 162.81 19.65C162.81 23.54 164.29 26.65 166.34 28.69C169.07 31.42 172.17 32.05 175.7 32.05C178.32 32.05 180.87 31.68 183.1 30.31C184.36 29.55 186.22 28.04 187.33 25.25L187.64 24.44L186.79 24.35L186.29 24.29L180.49 23.68C179.86 24.99 178.96 25.58 178.85 25.64C178.06 26.12 176.91 26.32 175.79 26.32C174.67 26.32 173.06 26.12 171.91 24.84C170.97 23.79 170.49 22.11 170.49 20.85H188.01V20.06L188 20.07ZM170.74 16.35C170.96 15.3 171.48 14.45 172.05 13.8C172.79 13.08 173.95 12.29 175.91 12.29C177.42 12.29 178.64 12.81 179.47 13.62C180.58 14.65 180.95 16.13 181 16.35H170.74ZM198.69 7.82002V3.14002H191.12V31.28H198.69V13.92H203.37V7.82002H198.69ZM118.29 20.07C118.29 17.17 117.77 13.48 114.97 10.55C112.07 7.50002 108.29 7.02002 105.67 7.02002C103.05 7.02002 99.52 7.56002 96.68 10.38C94.32 12.8 93.1001 16.29 93.1001 19.65C93.1001 23.54 94.5801 26.65 96.6301 28.69C99.3601 31.42 102.46 32.05 105.99 32.05C108.61 32.05 111.16 31.68 113.39 30.31C114.65 29.55 116.51 28.04 117.62 25.25L117.93 24.44L117.08 24.35L116.58 24.29L110.78 23.68C110.15 24.99 109.25 25.58 109.14 25.64C108.35 26.12 107.2 26.32 106.08 26.32C104.96 26.32 103.35 26.12 102.2 24.84C101.26 23.79 100.78 22.11 100.78 20.85H118.3V20.06L118.29 20.07ZM101.03 16.35C101.25 15.3 101.77 14.45 102.34 13.8C103.08 13.08 104.24 12.29 106.2 12.29C107.71 12.29 108.93 12.81 109.76 13.62C110.87 14.65 111.24 16.13 111.29 16.35H101.03ZM68.55 45.77L67.93 43.9H65.3501L64.7501 45.77H63.61L65.9701 38.86H67.3801L69.74 45.77H68.5701H68.55ZM66.6601 39.89H66.61L65.61 42.94H67.65L66.6601 39.89ZM74.9401 46.26C74.9401 46.79 74.74 47.2 74.33 47.47C73.92 47.74 73.26 47.88 72.33 47.88C71.91 47.88 71.5501 47.85 71.2601 47.8C70.9701 47.74 70.7301 47.66 70.5401 47.56C70.3501 47.45 70.2101 47.33 70.1301 47.17C70.0401 47.02 70.0001 46.84 70.0001 46.65C70.0001 46.37 70.0801 46.14 70.2301 45.99C70.3901 45.83 70.6001 45.72 70.8801 45.66V45.55C70.4901 45.43 70.3 45.16 70.3 44.76C70.3 44.5 70.3901 44.29 70.5701 44.15C70.7501 44.01 70.96 43.91 71.21 43.85V43.81C70.91 43.67 70.6701 43.46 70.5101 43.2C70.3501 42.94 70.27 42.63 70.27 42.28C70.27 41.75 70.45 41.33 70.8 41C71.15 40.68 71.6601 40.52 72.3201 40.52C72.6801 40.52 72.9901 40.57 73.2501 40.68V40.54C73.2501 40.31 73.3001 40.13 73.4101 40C73.5201 39.87 73.6901 39.81 73.9201 39.81H74.71V40.68H73.6601V40.89C73.8901 41.04 74.0701 41.24 74.1901 41.48C74.3101 41.72 74.3801 41.99 74.3801 42.29C74.3801 42.81 74.2001 43.23 73.8501 43.55C73.5001 43.87 72.99 44.03 72.33 44.03C72.08 44.03 71.8501 44 71.6601 43.95C71.5301 44 71.4101 44.06 71.3101 44.14C71.2101 44.22 71.1601 44.33 71.1601 44.46C71.1601 44.6 71.2201 44.7 71.3501 44.76C71.4801 44.82 71.6501 44.85 71.8801 44.85H73.15C73.78 44.85 74.2401 44.98 74.5301 45.23C74.8101 45.48 74.96 45.83 74.96 46.27L74.9401 46.26ZM73.93 46.38C73.93 46.2 73.8601 46.06 73.7301 45.95C73.5901 45.84 73.35 45.79 72.99 45.79H71.2501C71.0101 45.93 70.8901 46.13 70.8901 46.38C70.8901 46.59 70.9701 46.76 71.1401 46.89C71.3101 47.02 71.5901 47.08 72.0001 47.08H72.6701C73.5101 47.08 73.93 46.84 73.93 46.37V46.38ZM72.3101 43.23C72.6301 43.23 72.87 43.16 73.05 43.02C73.22 42.88 73.3101 42.66 73.3101 42.36V42.16C73.3101 41.86 73.22 41.64 73.05 41.5C72.87 41.36 72.6301 41.29 72.3101 41.29C71.9901 41.29 71.7501 41.36 71.5701 41.5C71.4001 41.64 71.3101 41.86 71.3101 42.16V42.36C71.3101 42.66 71.4001 42.88 71.5701 43.02C71.7501 43.16 71.9901 43.23 72.3101 43.23ZM77.61 45.89C77.24 45.89 76.91 45.83 76.62 45.7C76.33 45.57 76.0801 45.39 75.8801 45.16C75.6801 44.93 75.5201 44.64 75.4101 44.31C75.3001 43.98 75.2501 43.61 75.2501 43.2C75.2501 42.79 75.3001 42.42 75.4101 42.09C75.5201 41.76 75.6801 41.47 75.8801 41.24C76.0801 41.01 76.33 40.83 76.62 40.7C76.91 40.58 77.24 40.51 77.61 40.51C77.98 40.51 78.3201 40.58 78.6001 40.71C78.8901 40.84 79.1301 41.02 79.3201 41.26C79.5101 41.49 79.6601 41.77 79.7501 42.08C79.8501 42.39 79.8901 42.72 79.8901 43.08V43.49H76.36V43.66C76.36 44.05 76.48 44.38 76.71 44.63C76.94 44.88 77.28 45.01 77.71 45.01C78.03 45.01 78.2901 44.94 78.5101 44.8C78.7301 44.66 78.9101 44.48 79.0601 44.24L79.6901 44.87C79.5001 45.19 79.22 45.44 78.86 45.63C78.5 45.82 78.07 45.91 77.59 45.91L77.61 45.89ZM77.61 41.35C77.43 41.35 77.2601 41.38 77.1001 41.45C76.9501 41.52 76.8101 41.61 76.7001 41.73C76.5901 41.85 76.5101 41.99 76.4501 42.16C76.3901 42.32 76.36 42.51 76.36 42.7V42.77H78.7601V42.67C78.7601 42.27 78.6601 41.96 78.4501 41.71C78.2401 41.46 77.97 41.35 77.61 41.35ZM80.8101 45.77V40.62H81.8901V41.47H81.9401C82.0501 41.19 82.2201 40.96 82.4501 40.78C82.6801 40.6 82.9901 40.5 83.3901 40.5C83.9201 40.5 84.33 40.67 84.62 41.02C84.91 41.37 85.0601 41.86 85.0601 42.5V45.77H83.9801V42.64C83.9801 41.84 83.6601 41.43 83.0101 41.43C82.8701 41.43 82.7301 41.45 82.6001 41.48C82.4601 41.52 82.34 41.57 82.24 41.64C82.14 41.71 82.05 41.81 81.99 41.92C81.93 42.03 81.9 42.16 81.9 42.32V45.76H80.8201L80.8101 45.77ZM88.2501 45.89C87.8801 45.89 87.5501 45.83 87.2601 45.7C86.9701 45.57 86.7301 45.39 86.5301 45.16C86.3301 44.93 86.18 44.64 86.08 44.31C85.97 43.98 85.9201 43.61 85.9201 43.2C85.9201 42.79 85.97 42.42 86.08 42.09C86.18 41.76 86.3401 41.47 86.5301 41.24C86.7201 41.01 86.9701 40.83 87.2601 40.7C87.5501 40.58 87.8801 40.51 88.2501 40.51C88.7701 40.51 89.19 40.63 89.52 40.86C89.85 41.09 90.09 41.4 90.24 41.78L89.3501 42.2C89.2801 41.96 89.1501 41.77 88.9701 41.63C88.7901 41.49 88.5501 41.42 88.2501 41.42C87.8601 41.42 87.5601 41.54 87.3501 41.79C87.1501 42.04 87.05 42.36 87.05 42.75V43.67C87.05 44.06 87.1501 44.39 87.3501 44.63C87.5501 44.88 87.8501 45 88.2501 45C88.5701 45 88.8201 44.92 89.0101 44.77C89.2001 44.62 89.35 44.41 89.46 44.15L90.2801 44.59C90.1101 45.01 89.8501 45.34 89.5101 45.57C89.1701 45.8 88.7501 45.91 88.2501 45.91V45.89ZM91.5701 39.7C91.3501 39.7 91.18 39.65 91.08 39.54C90.98 39.43 90.93 39.3 90.93 39.13V38.96C90.93 38.79 90.98 38.66 91.08 38.55C91.18 38.44 91.3501 38.39 91.5701 38.39C91.7901 38.39 91.96 38.44 92.05 38.55C92.14 38.66 92.2001 38.79 92.2001 38.96V39.13C92.2001 39.3 92.15 39.43 92.05 39.54C91.95 39.65 91.7901 39.7 91.5701 39.7ZM91.02 40.62H92.1001V45.77H91.02V40.62ZM97.1301 45.77C96.8501 45.77 96.6301 45.69 96.4801 45.53C96.3301 45.37 96.2401 45.16 96.2001 44.91H96.15C96.05 45.23 95.87 45.48 95.61 45.64C95.35 45.81 95.03 45.89 94.65 45.89C94.12 45.89 93.7001 45.75 93.4201 45.47C93.1401 45.19 92.99 44.82 92.99 44.35C92.99 43.84 93.18 43.45 93.55 43.19C93.92 42.93 94.4701 42.8 95.1901 42.8H96.12V42.36C96.12 42.04 96.03 41.8 95.86 41.63C95.69 41.46 95.4201 41.37 95.0601 41.37C94.7601 41.37 94.5101 41.44 94.3201 41.57C94.1301 41.7 93.97 41.87 93.84 42.08L93.2001 41.5C93.3701 41.21 93.6101 40.97 93.9201 40.78C94.2301 40.59 94.6401 40.5 95.1401 40.5C95.8101 40.5 96.3201 40.65 96.6701 40.96C97.0201 41.27 97.2001 41.72 97.2001 42.3V44.88H97.74V45.76H97.1401L97.1301 45.77ZM94.9501 45.07C95.2901 45.07 95.5601 45 95.7801 44.85C96.0001 44.7 96.11 44.5 96.11 44.25V43.51H95.2001C94.4501 43.51 94.08 43.74 94.08 44.2V44.38C94.08 44.61 94.1601 44.78 94.3101 44.9C94.4601 45.02 94.6801 45.07 94.9501 45.07ZM101.03 45.77V38.86H105.46V39.85H102.15V41.77H105.15V42.76H102.15V44.78H105.46V45.77H101.03ZM108.07 45.89C107.58 45.89 107.17 45.8 106.84 45.63C106.51 45.46 106.22 45.22 105.98 44.92L106.67 44.29C106.86 44.52 107.07 44.7 107.31 44.83C107.54 44.96 107.82 45.02 108.13 45.02C108.44 45.02 108.68 44.96 108.84 44.84C108.99 44.72 109.07 44.55 109.07 44.33C109.07 44.16 109.02 44.02 108.91 43.91C108.8 43.79 108.61 43.72 108.34 43.69L107.86 43.63C107.33 43.56 106.92 43.41 106.62 43.17C106.32 42.93 106.17 42.57 106.17 42.1C106.17 41.85 106.22 41.63 106.31 41.43C106.4 41.24 106.53 41.07 106.7 40.94C106.87 40.8 107.07 40.7 107.3 40.63C107.53 40.56 107.79 40.52 108.08 40.52C108.54 40.52 108.92 40.59 109.21 40.74C109.5 40.88 109.77 41.09 110 41.34L109.34 41.97C109.21 41.81 109.04 41.68 108.82 41.56C108.6 41.44 108.36 41.39 108.08 41.39C107.78 41.39 107.56 41.45 107.42 41.57C107.28 41.69 107.21 41.84 107.21 42.04C107.21 42.24 107.27 42.39 107.4 42.49C107.53 42.59 107.73 42.66 108 42.71L108.48 42.77C109.05 42.86 109.46 43.02 109.72 43.27C109.98 43.52 110.11 43.85 110.11 44.26C110.11 44.51 110.06 44.74 109.97 44.94C109.87 45.14 109.74 45.31 109.56 45.46C109.38 45.6 109.17 45.72 108.92 45.8C108.67 45.88 108.39 45.92 108.08 45.92L108.07 45.89ZM112.59 45.77C112.21 45.77 111.93 45.67 111.74 45.48C111.55 45.29 111.45 45.01 111.45 44.65V41.5H110.65V40.62H111.08C111.26 40.62 111.38 40.58 111.45 40.5C111.52 40.42 111.55 40.29 111.55 40.11V39.21H112.52V40.62H113.6V41.5H112.52V44.88H113.52V45.76H112.58L112.59 45.77ZM118.46 45.77C118.18 45.77 117.96 45.69 117.81 45.53C117.66 45.37 117.57 45.16 117.53 44.91H117.48C117.38 45.23 117.2 45.48 116.94 45.64C116.68 45.81 116.36 45.89 115.98 45.89C115.45 45.89 115.03 45.75 114.75 45.47C114.47 45.19 114.32 44.82 114.32 44.35C114.32 43.84 114.51 43.45 114.88 43.19C115.25 42.93 115.8 42.8 116.52 42.8H117.45V42.36C117.45 42.04 117.36 41.8 117.19 41.63C117.02 41.46 116.75 41.37 116.39 41.37C116.09 41.37 115.84 41.44 115.65 41.57C115.46 41.7 115.3 41.87 115.17 42.08L114.53 41.5C114.7 41.21 114.94 40.97 115.25 40.78C115.56 40.59 115.97 40.5 116.47 40.5C117.14 40.5 117.65 40.65 118 40.96C118.35 41.27 118.53 41.72 118.53 42.3V44.88H119.07V45.76H118.47L118.46 45.77ZM116.28 45.07C116.62 45.07 116.89 45 117.11 44.85C117.33 44.7 117.44 44.5 117.44 44.25V43.51H116.53C115.78 43.51 115.41 43.74 115.41 44.2V44.38C115.41 44.61 115.49 44.78 115.64 44.9C115.79 45.02 116.01 45.07 116.28 45.07ZM121.23 45.77C120.85 45.77 120.57 45.67 120.38 45.48C120.19 45.29 120.09 45.01 120.09 44.65V41.5H119.29V40.62H119.72C119.9 40.62 120.02 40.58 120.09 40.5C120.16 40.42 120.19 40.29 120.19 40.11V39.21H121.16V40.62H122.24V41.5H121.16V44.88H122.16V45.76H121.22L121.23 45.77ZM126.9 45.77C126.62 45.77 126.4 45.69 126.25 45.53C126.1 45.37 126.01 45.16 125.97 44.91H125.92C125.82 45.23 125.64 45.48 125.38 45.64C125.12 45.81 124.8 45.89 124.42 45.89C123.89 45.89 123.47 45.75 123.19 45.47C122.91 45.19 122.76 44.82 122.76 44.35C122.76 43.84 122.95 43.45 123.32 43.19C123.69 42.93 124.24 42.8 124.96 42.8H125.89V42.36C125.89 42.04 125.8 41.8 125.63 41.63C125.46 41.46 125.19 41.37 124.83 41.37C124.53 41.37 124.28 41.44 124.09 41.57C123.9 41.7 123.74 41.87 123.61 42.08L122.97 41.5C123.14 41.21 123.38 40.97 123.69 40.78C124 40.59 124.41 40.5 124.91 40.5C125.58 40.5 126.09 40.65 126.44 40.96C126.8 41.27 126.97 41.72 126.97 42.3V44.88H127.51V45.76H126.91L126.9 45.77ZM124.72 45.07C125.06 45.07 125.33 45 125.55 44.85C125.77 44.7 125.88 44.5 125.88 44.25V43.51H124.97C124.22 43.51 123.85 43.74 123.85 44.2V44.38C123.85 44.61 123.93 44.78 124.08 44.9C124.24 45.02 124.45 45.07 124.72 45.07ZM129.37 45.77C129 45.77 128.73 45.68 128.54 45.49C128.36 45.3 128.27 45.04 128.27 44.7V38.44H129.35V44.88H130.06V45.76H129.37V45.77ZM136.69 44.92H136.64C136.53 45.22 136.34 45.46 136.09 45.63C135.84 45.8 135.54 45.89 135.19 45.89C134.54 45.89 134.03 45.65 133.68 45.18C133.33 44.71 133.15 44.05 133.15 43.2C133.15 42.35 133.33 41.69 133.68 41.22C134.04 40.75 134.54 40.51 135.19 40.51C135.53 40.51 135.83 40.59 136.09 40.76C136.34 40.93 136.53 41.17 136.64 41.48H136.69V38.45H137.77V45.77H136.69V44.92ZM135.52 44.96C135.85 44.96 136.13 44.88 136.35 44.72C136.57 44.56 136.69 44.35 136.69 44.08V42.32C136.69 42.06 136.58 41.84 136.35 41.68C136.12 41.52 135.85 41.44 135.52 41.44C135.14 41.44 134.84 41.56 134.62 41.8C134.4 42.04 134.28 42.36 134.28 42.76V43.65C134.28 44.05 134.39 44.36 134.62 44.61C134.85 44.85 135.15 44.97 135.52 44.97V44.96ZM141.04 45.89C140.67 45.89 140.34 45.83 140.05 45.7C139.76 45.57 139.51 45.39 139.31 45.16C139.11 44.93 138.95 44.64 138.84 44.31C138.73 43.98 138.68 43.61 138.68 43.2C138.68 42.79 138.73 42.42 138.84 42.09C138.95 41.76 139.11 41.47 139.31 41.24C139.51 41.01 139.76 40.83 140.05 40.7C140.34 40.58 140.67 40.51 141.04 40.51C141.41 40.51 141.75 40.58 142.03 40.71C142.32 40.84 142.56 41.02 142.75 41.26C142.94 41.49 143.09 41.77 143.18 42.08C143.27 42.39 143.32 42.72 143.32 43.08V43.49H139.79V43.66C139.79 44.05 139.91 44.38 140.14 44.63C140.37 44.88 140.71 45.01 141.14 45.01C141.46 45.01 141.72 44.94 141.94 44.8C142.16 44.66 142.34 44.48 142.49 44.24L143.12 44.87C142.93 45.19 142.65 45.44 142.29 45.63C141.93 45.82 141.51 45.91 141.02 45.91L141.04 45.89ZM141.04 41.35C140.85 41.35 140.69 41.38 140.53 41.45C140.38 41.52 140.24 41.61 140.14 41.73C140.03 41.85 139.95 41.99 139.89 42.16C139.83 42.32 139.8 42.51 139.8 42.7V42.77H142.2V42.67C142.2 42.27 142.1 41.96 141.89 41.71C141.68 41.46 141.41 41.35 141.05 41.35H141.04ZM152.05 40.49H152L151.46 41.61L149.95 44.37L148.44 41.61L147.9 40.49H147.85V45.78H146.78V38.87H148.11L149.96 42.38H150.02L151.87 38.87H153.14V45.78H152.07V40.49H152.05ZM156.47 45.89C156.1 45.89 155.77 45.83 155.48 45.7C155.19 45.57 154.94 45.39 154.74 45.16C154.54 44.93 154.38 44.64 154.27 44.31C154.16 43.98 154.11 43.61 154.11 43.2C154.11 42.79 154.16 42.42 154.27 42.09C154.38 41.76 154.54 41.47 154.74 41.24C154.94 41.01 155.19 40.83 155.48 40.7C155.77 40.58 156.1 40.51 156.47 40.51C156.84 40.51 157.18 40.58 157.47 40.71C157.76 40.84 158 41.02 158.19 41.26C158.38 41.49 158.53 41.77 158.62 42.08C158.72 42.39 158.76 42.72 158.76 43.08V43.49H155.23V43.66C155.23 44.05 155.35 44.38 155.58 44.63C155.82 44.88 156.15 45.01 156.59 45.01C156.91 45.01 157.17 44.94 157.39 44.8C157.61 44.66 157.79 44.48 157.94 44.24L158.57 44.87C158.38 45.19 158.1 45.44 157.74 45.63C157.38 45.82 156.95 45.91 156.47 45.91V45.89ZM156.47 41.35C156.29 41.35 156.12 41.38 155.96 41.45C155.8 41.52 155.67 41.61 155.56 41.73C155.45 41.85 155.37 41.99 155.31 42.16C155.25 42.32 155.22 42.51 155.22 42.7V42.77H157.62V42.67C157.62 42.27 157.52 41.96 157.31 41.71C157.1 41.46 156.83 41.35 156.47 41.35ZM161.29 45.77C160.91 45.77 160.63 45.67 160.44 45.48C160.25 45.29 160.15 45.01 160.15 44.65V41.5H159.35V40.62H159.79C159.97 40.62 160.09 40.58 160.16 40.5C160.23 40.42 160.26 40.29 160.26 40.11V39.21H161.23V40.62H162.31V41.5H161.23V44.88H162.23V45.76H161.29V45.77ZM165.37 45.89C165 45.89 164.67 45.83 164.38 45.7C164.09 45.57 163.84 45.39 163.64 45.16C163.44 44.93 163.28 44.64 163.17 44.31C163.06 43.98 163.01 43.61 163.01 43.2C163.01 42.79 163.06 42.42 163.17 42.09C163.28 41.76 163.44 41.47 163.64 41.24C163.84 41.01 164.09 40.83 164.38 40.7C164.67 40.58 165 40.51 165.37 40.51C165.74 40.51 166.08 40.58 166.36 40.71C166.65 40.84 166.89 41.02 167.08 41.26C167.27 41.49 167.42 41.77 167.51 42.08C167.6 42.39 167.65 42.72 167.65 43.08V43.49H164.12V43.66C164.12 44.05 164.24 44.38 164.47 44.63C164.7 44.88 165.04 45.01 165.47 45.01C165.79 45.01 166.05 44.94 166.27 44.8C166.49 44.66 166.67 44.48 166.82 44.24L167.45 44.87C167.26 45.19 166.98 45.44 166.62 45.63C166.26 45.82 165.84 45.91 165.35 45.91L165.37 45.89ZM165.37 41.35C165.18 41.35 165.02 41.38 164.86 41.45C164.71 41.52 164.57 41.61 164.47 41.73C164.36 41.85 164.28 41.99 164.22 42.16C164.16 42.32 164.13 42.51 164.13 42.7V42.77H166.53V42.67C166.53 42.27 166.43 41.96 166.22 41.71C166.01 41.46 165.74 41.35 165.38 41.35H165.37ZM170.79 45.89C170.43 45.89 170.11 45.83 169.82 45.7C169.53 45.57 169.28 45.39 169.07 45.16C168.87 44.93 168.71 44.64 168.59 44.31C168.48 43.98 168.42 43.61 168.42 43.2C168.42 42.79 168.48 42.42 168.59 42.09C168.7 41.76 168.86 41.47 169.07 41.24C169.28 41.01 169.52 40.83 169.82 40.7C170.11 40.58 170.44 40.51 170.79 40.51C171.14 40.51 171.47 40.57 171.76 40.7C172.05 40.83 172.3 41.01 172.51 41.24C172.72 41.47 172.87 41.76 172.99 42.09C173.1 42.42 173.16 42.79 173.16 43.2C173.16 43.61 173.1 43.98 172.99 44.31C172.88 44.64 172.72 44.93 172.51 45.16C172.31 45.39 172.06 45.57 171.76 45.7C171.46 45.83 171.14 45.89 170.79 45.89ZM170.79 44.99C171.16 44.99 171.46 44.88 171.68 44.65C171.9 44.42 172.02 44.08 172.02 43.63V42.76C172.02 42.31 171.91 41.97 171.68 41.74C171.45 41.51 171.16 41.4 170.79 41.4C170.42 41.4 170.12 41.51 169.9 41.74C169.68 41.97 169.56 42.31 169.56 42.76V43.63C169.56 44.08 169.67 44.42 169.9 44.65C170.13 44.88 170.42 44.99 170.79 44.99ZM174.26 45.77V40.62H175.34V41.61H175.39C175.46 41.35 175.62 41.12 175.85 40.92C176.08 40.72 176.4 40.62 176.81 40.62H177.1V41.66H176.67C176.24 41.66 175.91 41.73 175.69 41.87C175.46 42.01 175.35 42.21 175.35 42.48V45.77H174.27H174.26ZM179.93 45.89C179.57 45.89 179.25 45.83 178.96 45.7C178.67 45.57 178.42 45.39 178.21 45.16C178.01 44.93 177.85 44.64 177.73 44.31C177.62 43.98 177.56 43.61 177.56 43.2C177.56 42.79 177.62 42.42 177.73 42.09C177.84 41.76 178 41.47 178.21 41.24C178.42 41.01 178.66 40.83 178.96 40.7C179.25 40.58 179.58 40.51 179.93 40.51C180.28 40.51 180.61 40.57 180.9 40.7C181.19 40.83 181.44 41.01 181.65 41.24C181.86 41.47 182.01 41.76 182.13 42.09C182.24 42.42 182.3 42.79 182.3 43.2C182.3 43.61 182.24 43.98 182.13 44.31C182.02 44.64 181.86 44.93 181.65 45.16C181.45 45.39 181.2 45.57 180.9 45.7C180.6 45.83 180.28 45.89 179.93 45.89ZM179.93 44.99C180.3 44.99 180.6 44.88 180.82 44.65C181.04 44.42 181.16 44.08 181.16 43.63V42.76C181.16 42.31 181.05 41.97 180.82 41.74C180.59 41.51 180.3 41.4 179.93 41.4C179.56 41.4 179.26 41.51 179.04 41.74C178.82 41.97 178.7 42.31 178.7 42.76V43.63C178.7 44.08 178.81 44.42 179.04 44.65C179.27 44.88 179.56 44.99 179.93 44.99ZM184.31 45.77C183.94 45.77 183.67 45.68 183.48 45.49C183.3 45.3 183.21 45.04 183.21 44.7V38.44H184.29V44.88H185V45.76H184.31V45.77ZM187.96 45.89C187.6 45.89 187.28 45.83 186.99 45.7C186.7 45.57 186.45 45.39 186.24 45.16C186.04 44.93 185.88 44.64 185.76 44.31C185.65 43.98 185.59 43.61 185.59 43.2C185.59 42.79 185.65 42.42 185.76 42.09C185.87 41.76 186.03 41.47 186.24 41.24C186.45 41.01 186.69 40.83 186.99 40.7C187.28 40.58 187.61 40.51 187.96 40.51C188.31 40.51 188.64 40.57 188.94 40.7C189.23 40.83 189.48 41.01 189.69 41.24C189.9 41.47 190.05 41.76 190.17 42.09C190.28 42.42 190.34 42.79 190.34 43.2C190.34 43.61 190.28 43.98 190.17 44.31C190.06 44.64 189.9 44.93 189.69 45.16C189.49 45.39 189.24 45.57 188.94 45.7C188.65 45.83 188.32 45.89 187.96 45.89ZM187.96 44.99C188.33 44.99 188.63 44.88 188.85 44.65C189.08 44.42 189.19 44.08 189.19 43.63V42.76C189.19 42.31 189.08 41.97 188.85 41.74C188.63 41.51 188.33 41.4 187.96 41.4C187.59 41.4 187.29 41.51 187.07 41.74C186.85 41.97 186.73 42.31 186.73 42.76V43.63C186.73 44.08 186.84 44.42 187.07 44.65C187.3 44.88 187.59 44.99 187.96 44.99ZM195.75 46.26C195.75 46.79 195.55 47.2 195.14 47.47C194.73 47.74 194.06 47.88 193.14 47.88C192.72 47.88 192.36 47.85 192.07 47.8C191.78 47.74 191.54 47.66 191.35 47.56C191.16 47.45 191.03 47.33 190.94 47.17C190.85 47.02 190.81 46.84 190.81 46.65C190.81 46.37 190.89 46.14 191.04 45.99C191.19 45.83 191.41 45.72 191.69 45.66V45.55C191.3 45.43 191.11 45.16 191.11 44.76C191.11 44.5 191.2 44.29 191.38 44.15C191.56 44.01 191.77 43.91 192.02 43.85V43.81C191.72 43.67 191.48 43.46 191.32 43.2C191.16 42.94 191.08 42.63 191.08 42.28C191.08 41.75 191.26 41.33 191.61 41C191.96 40.67 192.47 40.52 193.13 40.52C193.49 40.52 193.8 40.57 194.06 40.68V40.54C194.06 40.31 194.11 40.13 194.22 40C194.33 39.87 194.5 39.81 194.73 39.81H195.52V40.68H194.47V40.89C194.7 41.04 194.88 41.24 195 41.48C195.12 41.72 195.19 41.99 195.19 42.29C195.19 42.81 195.01 43.23 194.66 43.55C194.3 43.87 193.79 44.03 193.13 44.03C192.88 44.03 192.66 44 192.46 43.95C192.33 44 192.21 44.06 192.11 44.14C192.01 44.22 191.96 44.33 191.96 44.46C191.96 44.6 192.02 44.7 192.15 44.76C192.28 44.82 192.45 44.85 192.68 44.85H193.95C194.58 44.85 195.04 44.98 195.33 45.23C195.62 45.48 195.76 45.83 195.76 46.27L195.75 46.26ZM194.74 46.38C194.74 46.2 194.67 46.06 194.54 45.95C194.41 45.84 194.16 45.79 193.8 45.79H192.06C191.82 45.93 191.7 46.13 191.7 46.38C191.7 46.59 191.78 46.76 191.95 46.89C192.12 47.02 192.4 47.08 192.81 47.08H193.48C194.32 47.08 194.74 46.84 194.74 46.37V46.38ZM193.12 43.23C193.44 43.23 193.68 43.16 193.86 43.02C194.04 42.88 194.12 42.66 194.12 42.36V42.16C194.12 41.86 194.03 41.64 193.86 41.5C193.69 41.36 193.44 41.29 193.12 41.29C192.8 41.29 192.56 41.36 192.38 41.5C192.2 41.64 192.12 41.86 192.12 42.16V42.36C192.12 42.66 192.21 42.88 192.38 43.02C192.55 43.16 192.8 43.23 193.12 43.23ZM197.12 40.01L196.45 39.68L197.35 37.9L198.29 38.36L197.12 40.01ZM196.46 45.77V40.62H197.54V45.77H196.46ZM202.77 45.77C202.49 45.77 202.27 45.69 202.12 45.53C201.97 45.37 201.88 45.16 201.84 44.91H201.79C201.69 45.23 201.51 45.48 201.25 45.64C200.99 45.81 200.67 45.89 200.29 45.89C199.76 45.89 199.34 45.75 199.06 45.47C198.78 45.19 198.63 44.82 198.63 44.35C198.63 43.84 198.82 43.45 199.19 43.19C199.56 42.93 200.11 42.8 200.83 42.8H201.76V42.36C201.76 42.04 201.67 41.8 201.5 41.63C201.33 41.46 201.06 41.37 200.7 41.37C200.4 41.37 200.15 41.44 199.96 41.57C199.77 41.7 199.61 41.87 199.48 42.08L198.84 41.5C199.01 41.21 199.25 40.97 199.56 40.78C199.87 40.59 200.28 40.5 200.78 40.5C201.45 40.5 201.96 40.65 202.31 40.96C202.66 41.27 202.84 41.72 202.84 42.3V44.88H203.38V45.76H202.78L202.77 45.77ZM200.59 45.07C200.93 45.07 201.2 45 201.42 44.85C201.64 44.7 201.75 44.5 201.75 44.25V43.51H200.84C200.09 43.51 199.72 43.74 199.72 44.2V44.38C199.72 44.61 199.8 44.78 199.95 44.9C200.1 45.02 200.32 45.07 200.59 45.07ZM5.47005 48.61C3.76005 48.61 2.36006 47.22 2.35006 45.52C2.35006 44.69 2.66006 43.9 3.24006 43.3C3.82006 42.7 4.61005 42.37 5.44005 42.36H5.47005C7.18005 42.36 8.58005 43.75 8.59005 45.45C8.61005 47.17 7.22005 48.59 5.50005 48.61H5.47005ZM18.9501 48.61C18.4001 48.61 17.8701 48.37 17.5001 47.96L13.15 43.11C12.68 42.59 12.47 41.94 12.48 41.06L12.5001 38.84C12.5001 38.45 12.81 38.15 13.2 38.15C13.32 38.15 13.4401 38.18 13.5501 38.24C14.0401 38.51 14.54 38.76 15.04 38.96C16.67 39.62 18.44 39.96 20.31 39.96C26.17 39.96 32.24 36.65 37.12 34L37.34 33.88C39.08 32.93 40.82 31.92 42.5 30.93C43.17 30.54 43.8401 30.14 44.5101 29.76C44.6301 29.69 44.7601 29.66 44.8901 29.66C45.2101 29.66 45.49 29.85 45.61 30.15L46.25 31.81C46.48 32.4 46.38 33.08 46 33.59L45.31 34.5C45.12 34.75 44.86 34.92 44.56 34.98C42.53 35.44 39.38 36.28 35.87 37.67C29.38 40.25 24.1801 43.7 20.4201 47.94C20.0501 48.36 19.51 48.6 18.96 48.6L18.9501 48.61ZM28.6701 45.33C28.3501 45.33 28.0801 45.13 27.9801 44.82C27.8901 44.51 28 44.19 28.27 44.01C31.83 41.65 36.0301 39.71 40.7601 38.24C40.8301 38.22 40.91 38.21 40.99 38.21C41.27 38.21 41.52 38.37 41.65 38.63C41.78 38.89 41.7501 39.18 41.5701 39.41L37.9401 44.17C37.4501 44.82 36.7001 45.2 35.8801 45.21L28.6601 45.34L28.6701 45.33ZM20.18 37.81C18.86 37.81 17.61 37.61 16.48 37.23C15.48 36.89 14.49 36.39 13.54 35.74C12.91 35.31 12.5401 34.6 12.5501 33.83L12.5801 30.62C12.5801 30.07 13.04 29.61 13.59 29.61C13.79 29.61 13.9901 29.67 14.1601 29.79C15.3401 30.6 16.49 31.25 17.68 31.78C19.79 32.72 22.1801 33.22 24.6001 33.22C28.7301 33.22 32.4201 31.81 34.9801 29.25C37.2001 27.03 37.9501 24.23 37.0101 21.58C36.0001 18.7 33.4201 16.44 31.0301 14.6C29.2801 13.26 27.4901 12.05 26.1301 11.14C25.6401 10.82 25.1401 10.48 24.6601 10.15C22.2301 8.51002 19.73 6.81002 16.98 5.76002C15.61 5.24002 14.32 4.98002 13.15 4.98002C11.98 4.98002 10.93 5.24002 10.01 5.76002C8.27005 6.75002 6.94005 8.52002 5.95005 11.17C5.77005 11.65 5.29006 11.98 4.77006 11.98C4.73006 11.98 4.68005 11.98 4.64005 11.98L4.02006 11.92C2.93006 11.81 2.01005 11.02 1.73005 9.96002L0.810049 6.42002C0.560049 5.45002 0.890045 4.40002 1.65004 3.74002L4.69005 1.15002C5.17005 0.74002 5.78004 0.52002 6.40004 0.52002C6.47004 0.52002 6.54005 0.52002 6.61005 0.52002L27.3201 2.15002C28.0101 2.20002 28.6 2.64002 28.87 3.28002C29.4 4.57002 29.8901 5.72002 30.5001 6.74002C31.8901 9.07002 33.8001 10.8 36.1901 11.89C37.4501 12.47 38.8 12.88 40.11 13.28C41.09 13.58 42.1001 13.89 43.0701 14.27C44.2701 14.73 45.2201 15.27 45.9801 15.91C46.8101 16.61 47.3 17.61 47.37 18.72C47.44 19.87 47.03 21.02 46.24 21.86L44.5 23.73C43.92 24.35 43.7401 25.25 44.0401 26.04L44.28 26.7C44.42 27.08 44.2601 27.5 43.9101 27.7C42.8201 28.31 41.7201 28.94 40.6601 29.55C39.5301 30.2 38.3701 30.87 37.2001 31.52L36.78 31.75C33.01 33.83 29.1101 35.98 24.9101 37.1C23.1901 37.56 21.6501 37.78 20.2001 37.78L20.18 37.81ZM26.2501 21.23C26.8301 22.38 26.5001 23.75 25.4701 24.41C24.8901 24.78 24.2001 24.97 23.4201 24.97C21.0501 24.97 18.35 23.24 17.52 21.18C17.13 20.21 17.25 19.1 17.83 18.26C18.35 17.51 19.16 17.12 20.15 17.12C22.3 17.12 25.1501 19.04 26.2501 21.22V21.23ZM35.21 23.13C34.61 19.62 30.1301 16.52 27.7301 14.86C27.4701 14.68 27.2401 14.52 27.0301 14.37C26.2501 13.85 25.4601 13.29 24.6901 12.76C21.8001 10.74 18.8101 8.65002 15.4101 7.49002C14.6901 7.23002 13.9901 7.10002 13.3201 7.10002C11.1401 7.10002 9.36005 8.44002 8.33005 10.88C8.18005 11.21 8.20005 11.58 8.37005 11.9C8.55005 12.22 8.86005 12.42 9.23005 12.46L11.67 12.71C12.29 12.78 12.74 13.29 12.73 13.91L12.6301 24.16C12.6301 25.3 13.14 26.38 14.01 27.07C15.7 28.4 17.38 29.38 19.15 30.08C20.81 30.73 22.7101 31.08 24.6401 31.08C28.8001 31.08 32.3101 29.53 34.2601 26.82C35.1001 25.66 35.4101 24.42 35.1901 23.13H35.21ZM24.4801 27.01C24.1801 27.05 23.86 27.08 23.55 27.08C20.64 27.08 17.4201 25.19 15.9101 22.59C14.8301 20.73 14.7701 18.74 15.7501 17C16.6101 15.71 18.1201 14.96 19.8901 14.96C20.6401 14.96 21.39 15.09 22.08 15.35C26.08 16.74 28.19 19.84 28.49 22.3C28.67 24.6 26.9801 26.57 24.4801 27V27.01ZM25.4701 24.42C24.8901 24.79 24.2001 24.98 23.4201 24.98C21.0501 24.98 18.35 23.25 17.52 21.19C17.13 20.22 17.25 19.11 17.83 18.27C18.35 17.52 19.16 17.13 20.15 17.13C22.3 17.13 25.1501 19.05 26.2501 21.23C26.8301 22.38 26.5001 23.75 25.4701 24.41V24.42ZM54.24 27.16C52.54 27.16 51.13 25.77 51.12 24.07C51.1 22.35 52.49 20.93 54.21 20.91H54.24C55.95 20.91 57.35 22.3 57.36 24C57.36 24.83 57.0501 25.62 56.4701 26.22C55.8901 26.82 55.1 27.15 54.27 27.16H54.24ZM25.0101 50.46C24.2401 50.46 23.6101 49.83 23.6001 49.07C23.6001 48.29 24.22 47.65 24.99 47.65H25.0001C25.7701 47.65 26.4001 48.28 26.4101 49.04C26.4101 49.42 26.2701 49.77 26.0101 50.04C25.7501 50.31 25.39 50.46 25.02 50.46H25.0101ZM29.36 50.46C28.59 50.46 27.9601 49.83 27.9501 49.07C27.9501 48.29 28.57 47.65 29.34 47.65H29.3501C30.1201 47.65 30.7501 48.28 30.7601 49.04C30.7601 49.42 30.62 49.77 30.36 50.04C30.1 50.31 29.74 50.46 29.37 50.46H29.36ZM25.4701 24.42C24.8901 24.79 24.2001 24.98 23.4201 24.98C21.0501 24.98 18.35 23.25 17.52 21.19C17.13 20.22 17.25 19.11 17.83 18.27C18.35 17.52 19.16 17.13 20.15 17.13C22.3 17.13 25.1501 19.05 26.2501 21.23C26.8301 22.38 26.5001 23.75 25.4701 24.41V24.42ZM50.12 17.49C49.85 17.49 49.6201 17.34 49.5101 17.1C48.7701 15.49 47.5801 14.21 45.9801 13.3C44.3801 12.39 42.6 11.84 40.87 11.3C40.16 11.08 39.43 10.85 38.71 10.6C35.8 9.58002 33.8101 8.09002 32.4701 5.91002C32.0701 5.26002 31.6901 4.52002 31.2801 3.60002C31.1701 3.36002 31.2 3.09002 31.34 2.87002C31.48 2.65002 31.7201 2.53002 31.9701 2.53002C31.9901 2.53002 32.0101 2.53002 32.0301 2.53002L39.59 3.13002C40.46 3.20002 41.29 3.49002 41.99 3.99002C46.14 6.88002 49.3101 9.41002 51.9801 11.95C52.3901 12.34 52.8 12.75 53.25 13.2C53.6 13.56 53.6 14.13 53.25 14.49L50.61 17.27C50.48 17.41 50.3 17.49 50.11 17.49H50.12ZM55.34 11.96C55.13 11.96 54.9401 11.88 54.7901 11.73C54.5601 11.5 54.33 11.27 54.12 11.06C52.09 9.08002 49.8101 7.12002 47.1301 5.09002C46.8701 4.89002 46.7701 4.57002 46.8801 4.26002C46.9801 3.96002 47.2501 3.76002 47.5701 3.76002C47.5901 3.76002 47.6101 3.76002 47.6301 3.76002L57.28 4.52002C58.06 4.58002 58.7201 5.10002 58.9701 5.85002L59.25 6.70002C59.47 7.37002 59.3 8.11002 58.81 8.63002L55.8901 11.71C55.7401 11.86 55.55 11.95 55.34 11.95V11.96Z" fill="#1951A3"/>
</svg>
