<svg width="268" height="103" viewBox="0 0 268 103" fill="none" xmlns="http://www.w3.org/2000/svg">
<g clip-path="url(#clip0_20016_6)">
<path d="M230.15 6.82022C225.78 11.1902 202.45 49.1502 197.56 49.1502C194.14 49.1502 189.05 39.2102 186.04 34.1502C175.6 16.7502 164.33 -0.0297852 145.12 -0.0297852C135.94 -0.0297852 126.46 4.77021 120.4 11.8402C115.13 4.49021 109.3 -0.0297852 95.96 -0.0297852C83.58 -0.0297852 71.96 5.97021 67.91 16.6802C66.63 9.01021 64.07 1.77022 50.29 0.410217C25.82 -1.99978 9.41999 17.2502 4.76999 38.8302C1.83999 52.4602 10.62 68.2902 29.13 68.2902C40.01 68.2902 48.59 63.8402 51.45 58.2902C51.45 58.2902 49.04 85.4202 25.38 85.4202C11.73 85.4202 2.50998 76.4202 2.50998 76.4202L0.269989 85.8502C-1.88001 94.8502 9.47999 102.52 22.74 102.52C42.17 102.52 59.03 90.1602 64.19 77.9402C69.35 65.7202 77.08 33.0002 77.08 33.0002C79.57 22.6102 86.49 16.8202 93.8 16.8202C102.14 16.8202 106.66 22.1902 103.68 34.7702L96.68 64.1602C94.53 73.1602 98.91 78.0102 107.24 78.0102H112.33L123.08 32.6502C125.56 22.1902 132.08 16.8202 139.69 16.8202C148.03 16.8202 152.41 22.1902 149.42 34.7702L142.42 64.1602C140.47 72.3002 143.9 78.0102 154.22 78.0102H156.51C156.51 78.0102 158.96 38.7502 168.26 38.7502C176.02 38.7502 184.46 66.5702 193.26 76.5302C193.26 76.5302 196.47 79.6502 199.52 76.5302C202.09 73.8902 249.2 9.35022 254.63 4.99022C251.005 2.31719 246.542 1.03199 242.051 1.36774C237.559 1.70349 233.337 3.63796 230.15 6.82022ZM56.68 34.4802C53.81 46.6302 45.35 53.6902 35.88 53.6902C26.83 53.6902 22.51 46.3402 24.88 36.4502C27.59 25.0102 36.88 16.8102 46.63 16.8102C54.94 16.8202 59.49 22.6102 56.68 34.4802Z" fill="#E2001A"/>
<path d="M262.42 1.19996C263.411 1.19005 264.383 1.47485 265.211 2.01819C266.04 2.56154 266.689 3.33893 267.075 4.25164C267.461 5.16435 267.567 6.17122 267.38 7.1444C267.193 8.11758 266.72 9.01314 266.023 9.71741C265.326 10.4217 264.435 10.9029 263.464 11.0999C262.493 11.2969 261.485 11.2009 260.568 10.8239C259.652 10.447 258.868 9.80621 258.316 8.98292C257.765 8.15962 257.47 7.19098 257.47 6.19996C257.47 4.88249 257.99 3.61824 258.917 2.68198C259.844 1.74572 261.103 1.21313 262.42 1.19996ZM262.42 10.2C263.227 10.2019 264.017 9.96433 264.689 9.51722C265.362 9.07011 265.886 8.43358 266.197 7.68824C266.507 6.94289 266.589 6.12223 266.433 5.33013C266.277 4.53803 265.889 3.81012 265.319 3.23852C264.748 2.66692 264.021 2.27734 263.23 2.1191C262.438 1.96086 261.617 2.04106 260.871 2.34957C260.125 2.65808 259.487 3.18103 259.038 3.85219C258.59 4.52336 258.35 5.31258 258.35 6.11996C258.346 6.65743 258.448 7.19039 258.651 7.68821C258.854 8.18603 259.153 8.6389 259.531 9.02082C259.909 9.40273 260.359 9.70617 260.855 9.91367C261.351 10.1212 261.882 10.2287 262.42 10.23V10.2ZM260.52 3.25995H262.7C264.06 3.25995 264.7 3.86995 264.7 4.95995C264.718 5.15262 264.696 5.34688 264.637 5.531C264.577 5.71511 264.481 5.88525 264.354 6.03109C264.227 6.17693 264.071 6.29545 263.897 6.37948C263.723 6.46351 263.533 6.5113 263.34 6.51995L264.82 8.91996H263.73L262.31 6.59995H261.55V8.91996H260.55L260.52 3.25995ZM261.52 5.71995H262.28C262.92 5.71995 263.63 5.71996 263.63 4.91996C263.63 4.11996 262.92 4.11996 262.28 4.13996H261.52V5.71995Z" fill="#E2001A"/>
<path d="M72.8401 92.25H74.4901V101.68H72.8101L72.8401 92.25Z" fill="#130817"/>
<path d="M77.39 92.25H79.61L84.18 99.25V92.25H85.86V101.68H83.73L79.06 94.45V101.68H77.39V92.25Z" fill="#130817"/>
<path d="M88.78 92.25H91L95.57 99.25V92.25H97.25V101.68H95.12L90.49 94.45V101.68H88.81L88.78 92.25Z" fill="#130817"/>
<path d="M104.63 92.0098C105.293 91.9632 105.959 92.0585 106.583 92.2894C107.207 92.5204 107.774 92.8816 108.247 93.3491C108.72 93.8165 109.088 94.3794 109.327 95.0003C109.565 95.6212 109.669 96.2858 109.63 96.9498C109.655 97.6131 109.543 98.2746 109.301 98.8927C109.059 99.5107 108.691 100.072 108.222 100.541C107.752 101.011 107.191 101.378 106.573 101.621C105.955 101.863 105.293 101.975 104.63 101.95C103.926 102.039 103.21 101.978 102.532 101.77C101.853 101.561 101.227 101.211 100.694 100.742C100.161 100.273 99.7345 99.6953 99.4422 99.0484C99.1499 98.4014 98.9988 97.6997 98.9988 96.9898C98.9988 96.2799 99.1499 95.5781 99.4422 94.9311C99.7345 94.2842 100.161 93.7069 100.694 93.2377C101.227 92.7685 101.853 92.4181 102.532 92.2098C103.21 92.0015 103.926 91.9401 104.63 92.0297V92.0098ZM104.63 100.4C105.079 100.403 105.524 100.312 105.936 100.134C106.348 99.9556 106.719 99.6936 107.025 99.3645C107.33 99.0354 107.564 98.6463 107.711 98.222C107.859 97.7977 107.916 97.3474 107.88 96.8997C107.88 96.0378 107.538 95.2111 106.928 94.6016C106.319 93.9921 105.492 93.6497 104.63 93.6497C103.768 93.6497 102.941 93.9921 102.332 94.6016C101.722 95.2111 101.38 96.0378 101.38 96.8997C101.344 97.3491 101.402 97.8011 101.55 98.2268C101.699 98.6525 101.934 99.0425 102.242 99.3719C102.55 99.7013 102.923 99.9629 103.338 100.14C103.752 100.317 104.199 100.405 104.65 100.4H104.63Z" fill="#130817"/>
<path d="M110.58 92.25H112.49L115.06 99.38L117.72 92.25H119.53L115.72 101.68H114.26L110.58 92.25Z" fill="#130817"/>
<path d="M123.55 92.25H125.01L129.07 101.68H127.15L126.27 99.53H122.18L121.33 101.68H119.49L123.55 92.25ZM125.68 98.09L124.23 94.25L122.75 98.09H125.68Z" fill="#130817"/>
<path d="M131.9 93.8198H129.01V92.2998H136.49V93.8198H133.6V101.73H131.92L131.9 93.8198Z" fill="#130817"/>
<path d="M138.34 92.25H140.02V101.69H138.34V92.25Z" fill="#130817"/>
<path d="M142.88 92.25H145.11L149.68 99.25V92.25H151.36V101.69H149.23L144.57 94.45V101.69H142.89L142.88 92.25Z" fill="#130817"/>
<path d="M162.64 100.99C161.44 101.627 160.098 101.951 158.74 101.93C158.036 102.02 157.321 101.958 156.642 101.75C155.963 101.542 155.337 101.192 154.804 100.722C154.271 100.253 153.844 99.6758 153.552 99.0288C153.26 98.3819 153.109 97.6801 153.109 96.9702C153.109 96.2603 153.26 95.5586 153.552 94.9116C153.844 94.2647 154.271 93.6874 154.804 93.2182C155.337 92.7489 155.963 92.3985 156.642 92.1902C157.321 91.982 158.036 91.9206 158.74 92.0102C160.081 91.9227 161.406 92.344 162.45 93.1902L161.22 94.4502C160.545 93.8379 159.661 93.5085 158.75 93.5302C158.312 93.5241 157.877 93.6081 157.472 93.777C157.068 93.9459 156.702 94.1961 156.399 94.5121C156.095 94.8281 155.859 95.2031 155.706 95.6139C155.553 96.0247 155.487 96.4625 155.51 96.9002C155.473 97.3478 155.529 97.7984 155.675 98.2232C155.821 98.648 156.053 99.0378 156.358 99.3679C156.663 99.6979 157.033 99.961 157.444 100.14C157.856 100.32 158.301 100.412 158.75 100.41C159.518 100.438 160.279 100.266 160.96 99.9102V97.6902H159.03V96.1702H162.64V100.99Z" fill="#130817"/>
<path d="M174.49 94.2701C174.292 94.0258 174.04 93.8315 173.753 93.7029C173.467 93.5744 173.154 93.5151 172.84 93.53C172.07 93.53 171.29 93.8701 171.29 94.7401C171.29 96.6301 175.77 95.5501 175.77 98.9101C175.77 100.91 174.17 101.91 172.32 101.91C171.742 101.937 171.164 101.836 170.63 101.613C170.096 101.389 169.617 101.05 169.23 100.62L170.49 99.4201C170.694 99.7289 170.972 99.982 171.299 100.157C171.625 100.331 171.99 100.422 172.36 100.42C173.13 100.42 174.01 99.99 174.01 99.12C174.01 97.06 169.53 98.24 169.53 94.87C169.53 92.87 171.27 92.0201 173.01 92.0201C174.008 91.9922 174.979 92.3504 175.72 93.0201L174.49 94.2701Z" fill="#130817"/>
<path d="M182.66 92.0098C183.323 91.9632 183.989 92.0585 184.613 92.2894C185.237 92.5204 185.804 92.8816 186.277 93.3491C186.75 93.8165 187.118 94.3794 187.357 95.0003C187.595 95.6212 187.699 96.2858 187.66 96.9498C187.685 97.6131 187.573 98.2746 187.331 98.8927C187.089 99.5107 186.721 100.072 186.252 100.541C185.782 101.011 185.221 101.378 184.603 101.621C183.985 101.863 183.323 101.975 182.66 101.95C181.956 102.039 181.241 101.978 180.562 101.77C179.883 101.561 179.257 101.211 178.724 100.742C178.191 100.273 177.765 99.6953 177.472 99.0484C177.18 98.4014 177.029 97.6997 177.029 96.9898C177.029 96.2799 177.18 95.5781 177.472 94.9311C177.765 94.2842 178.191 93.7069 178.724 93.2377C179.257 92.7685 179.883 92.4181 180.562 92.2098C181.241 92.0015 181.956 91.9401 182.66 92.0297V92.0098ZM182.66 100.41C183.11 100.413 183.557 100.322 183.97 100.143C184.383 99.9643 184.755 99.7016 185.062 99.3715C185.368 99.0415 185.603 98.6513 185.751 98.2258C185.898 97.8003 185.956 97.3487 185.92 96.8997C185.944 96.4584 185.879 96.0168 185.727 95.6018C185.575 95.1868 185.34 94.8071 185.036 94.4861C184.732 94.165 184.366 93.9093 183.96 93.7345C183.554 93.5597 183.117 93.4695 182.675 93.4695C182.233 93.4695 181.796 93.5597 181.39 93.7345C180.984 93.9093 180.618 94.165 180.314 94.4861C180.01 94.8071 179.775 95.1868 179.623 95.6018C179.471 96.0168 179.405 96.4584 179.43 96.8997C179.393 97.3474 179.449 97.7979 179.595 98.2227C179.741 98.6475 179.973 99.0373 180.278 99.3674C180.583 99.6975 180.953 99.9606 181.364 100.14C181.776 100.319 182.221 100.411 182.67 100.41H182.66Z" fill="#130817"/>
<path d="M190.05 92.25H191.73V100.17H195.73V101.69H190.04L190.05 92.25Z" fill="#130817"/>
<path d="M205.06 98.2202C205.06 99.228 204.66 100.195 203.947 100.907C203.234 101.62 202.268 102.02 201.26 102.02C200.252 102.02 199.286 101.62 198.573 100.907C197.86 100.195 197.46 99.228 197.46 98.2202V92.2202H199.14V98.1402C199.14 98.7025 199.363 99.2417 199.761 99.6393C200.158 100.037 200.698 100.26 201.26 100.26C201.822 100.26 202.361 100.037 202.759 99.6393C203.157 99.2417 203.38 98.7025 203.38 98.1402V92.2202H205.06V98.2202Z" fill="#130817"/>
<path d="M209.82 93.8198H206.92V92.2998H214.39V93.8198H211.49V101.74H209.81L209.82 93.8198Z" fill="#130817"/>
<path d="M216.26 92.25H217.93V101.69H216.26V92.25Z" fill="#130817"/>
<path d="M225.28 92.0098C225.943 91.9632 226.609 92.0585 227.233 92.2894C227.857 92.5204 228.424 92.8816 228.897 93.3491C229.37 93.8165 229.738 94.3794 229.977 95.0003C230.215 95.6212 230.319 96.2858 230.28 96.9498C230.305 97.6131 230.193 98.2746 229.951 98.8927C229.709 99.5107 229.341 100.072 228.872 100.541C228.402 101.011 227.841 101.378 227.223 101.621C226.605 101.863 225.943 101.975 225.28 101.95C224.576 102.039 223.861 101.978 223.182 101.77C222.503 101.561 221.877 101.211 221.344 100.742C220.811 100.273 220.385 99.6953 220.092 99.0484C219.8 98.4014 219.649 97.6997 219.649 96.9898C219.649 96.2799 219.8 95.5781 220.092 94.9311C220.385 94.2842 220.811 93.7069 221.344 93.2377C221.877 92.7685 222.503 92.4181 223.182 92.2098C223.861 92.0015 224.576 91.9401 225.28 92.0297V92.0098ZM225.28 100.41C225.73 100.411 226.175 100.319 226.587 100.14C226.999 99.9607 227.37 99.6977 227.675 99.3678C227.981 99.038 228.214 98.6483 228.361 98.2235C228.509 97.7986 228.566 97.3479 228.53 96.8997C228.554 96.4584 228.489 96.0168 228.337 95.6018C228.185 95.1868 227.95 94.8071 227.646 94.4861C227.342 94.165 226.976 93.9093 226.57 93.7345C226.164 93.5597 225.727 93.4695 225.285 93.4695C224.843 93.4695 224.406 93.5597 224 93.7345C223.594 93.9093 223.228 94.165 222.924 94.4861C222.62 94.8071 222.385 95.1868 222.233 95.6018C222.081 96.0168 222.015 96.4584 222.04 96.8997C222.002 97.3491 222.059 97.8013 222.206 98.2275C222.353 98.6537 222.588 99.0445 222.895 99.3748C223.202 99.7052 223.574 99.9679 223.988 100.146C224.402 100.324 224.849 100.414 225.3 100.41H225.28Z" fill="#130817"/>
<path d="M232.67 92.25H234.9L239.47 99.25V92.25H241.15V101.69H239.02L234.35 94.45V101.69H232.66L232.67 92.25Z" fill="#130817"/>
<path d="M248.63 94.2699C248.431 94.0242 248.177 93.829 247.889 93.7004C247.6 93.5718 247.285 93.5133 246.97 93.5298C246.2 93.5298 245.43 93.8699 245.43 94.7399C245.43 96.6299 249.91 95.5498 249.91 98.9098C249.91 100.91 248.31 101.91 246.45 101.91C245.874 101.939 245.298 101.839 244.765 101.618C244.233 101.396 243.756 101.059 243.37 100.63L244.63 99.3998C244.834 99.7093 245.111 99.9629 245.438 100.138C245.764 100.312 246.13 100.402 246.5 100.4C247.27 100.4 248.15 99.9698 248.15 99.0998C248.15 97.0398 243.67 98.2198 243.67 94.8498C243.67 92.8498 245.4 91.9998 247.15 91.9998C248.148 91.974 249.118 92.3319 249.86 92.9998L248.63 94.2699Z" fill="#130817"/>
</g>
<defs>
<clipPath id="clip0_20016_6">
<rect width="267.37" height="102.59" fill="white"/>
</clipPath>
</defs>
</svg>
