<svg width="1311" height="542" viewBox="0 0 1311 542" fill="none" xmlns="http://www.w3.org/2000/svg">
<path d="M1021.18 438.61C1021.18 444.524 1023.53 450.196 1027.71 454.378C1031.89 458.561 1037.57 460.91 1043.48 460.91H1286.94C1292.85 460.907 1298.53 458.557 1302.71 454.376C1306.89 450.195 1309.24 444.524 1309.25 438.61V323.18L1309.18 23.26C1309.18 20.336 1308.61 17.4403 1307.49 14.7384C1306.37 12.0365 1304.73 9.5815 1302.67 7.51395C1300.6 5.44639 1298.14 3.80683 1295.44 2.68909C1292.74 1.57135 1289.84 0.997378 1286.92 1.00001H1043.42C1037.51 0.997355 1031.85 3.34079 1027.67 7.51506C1023.49 11.6893 1021.14 17.3527 1021.13 23.26V63.09H289.06V23.26C289.057 20.3342 288.478 17.4375 287.356 14.7353C286.234 12.0332 284.591 9.57856 282.52 7.51153C280.449 5.44449 277.992 3.80556 275.288 2.68832C272.584 1.57107 269.686 0.997381 266.76 1.00001H23.3C20.3741 0.997381 17.4764 1.57107 14.7723 2.68832C12.0681 3.80556 9.61055 5.44449 7.5398 7.51153C5.46905 9.57856 3.82572 12.0332 2.70362 14.7353C1.58151 17.4375 1.00263 20.3342 1 23.26L1.06 438.61C1.05606 441.536 1.62885 444.435 2.74563 447.139C3.86241 449.844 5.50129 452.302 7.56858 454.373C9.63588 456.444 12.0911 458.087 14.7938 459.209C17.4965 460.331 20.3938 460.909 23.32 460.91H266.79C272.704 460.907 278.374 458.557 282.556 454.376C286.737 450.194 289.087 444.524 289.09 438.61V398.78H1021.15L1021.18 438.61Z" fill="#F2EFD9"/>
<path d="M1021.18 438.61C1021.18 444.524 1023.53 450.196 1027.71 454.378C1031.89 458.561 1037.57 460.91 1043.48 460.91H1286.94C1292.85 460.907 1298.53 458.557 1302.71 454.376C1306.89 450.195 1309.24 444.524 1309.25 438.61V323.18L1309.18 23.26C1309.18 20.336 1308.61 17.4403 1307.49 14.7384C1306.37 12.0365 1304.73 9.5815 1302.67 7.51395C1300.6 5.44639 1298.14 3.80683 1295.44 2.68909C1292.74 1.57135 1289.84 0.997378 1286.92 1.00001H1043.42C1037.51 0.997355 1031.85 3.34079 1027.67 7.51506C1023.49 11.6893 1021.14 17.3527 1021.13 23.26V63.09H289.06V23.26C289.057 20.3342 288.478 17.4375 287.356 14.7353C286.234 12.0332 284.591 9.57856 282.52 7.51153C280.449 5.44449 277.992 3.80556 275.288 2.68832C272.584 1.57107 269.686 0.997381 266.76 1.00001H23.3C20.3741 0.997381 17.4764 1.57107 14.7723 2.68832C12.0681 3.80556 9.61055 5.44449 7.5398 7.51153C5.46905 9.57856 3.82572 12.0332 2.70362 14.7353C1.58151 17.4375 1.00263 20.3342 1 23.26L1.06 438.61C1.05606 441.536 1.62885 444.435 2.74563 447.139C3.86241 449.844 5.50129 452.302 7.56858 454.373C9.63588 456.444 12.0911 458.087 14.7938 459.209C17.4965 460.331 20.3938 460.909 23.32 460.91H266.79C272.704 460.907 278.374 458.557 282.556 454.376C286.737 450.194 289.087 444.524 289.09 438.61V398.78H1021.15L1021.18 438.61Z" fill="#F2EFD9" stroke="#F1EFD9" stroke-width="2" stroke-miterlimit="10"/>
<path d="M1021.18 438.61C1021.18 444.524 1023.53 450.196 1027.71 454.378C1031.89 458.561 1037.57 460.91 1043.48 460.91H1286.94C1292.85 460.907 1298.53 458.557 1302.71 454.376C1306.89 450.195 1309.24 444.524 1309.25 438.61V323.18L1309.18 23.26C1309.18 20.336 1308.61 17.4403 1307.49 14.7384C1306.37 12.0365 1304.73 9.5815 1302.67 7.51395C1300.6 5.44639 1298.14 3.80683 1295.44 2.68909C1292.74 1.57135 1289.84 0.997378 1286.92 1.00001H1043.42C1037.51 0.997355 1031.85 3.34079 1027.67 7.51506C1023.49 11.6893 1021.14 17.3527 1021.13 23.26V63.09H289.06V23.26C289.057 20.3342 288.478 17.4375 287.356 14.7353C286.234 12.0332 284.591 9.57856 282.52 7.51153C280.449 5.44449 277.992 3.80556 275.288 2.68832C272.584 1.57107 269.686 0.997381 266.76 1.00001H23.3C20.3741 0.997381 17.4764 1.57107 14.7723 2.68832C12.0681 3.80556 9.61055 5.44449 7.5398 7.51153C5.46905 9.57856 3.82572 12.0332 2.70362 14.7353C1.58151 17.4375 1.00263 20.3342 1 23.26L1.06 438.61C1.05606 441.536 1.62885 444.435 2.74563 447.139C3.86241 449.844 5.50129 452.302 7.56858 454.373C9.63588 456.444 12.0911 458.087 14.7938 459.209C17.4965 460.331 20.3938 460.909 23.32 460.91H266.79C272.704 460.907 278.374 458.557 282.556 454.376C286.737 450.194 289.087 444.524 289.09 438.61V398.78H1021.15L1021.18 438.61Z" fill="#BE1622"/>
<path d="M1229.41 92.8699H1232.93C1234.6 92.8699 1235.77 93.4999 1235.77 94.8699C1235.77 96.5199 1234.54 97.1799 1232.16 97.1799H1229.41V92.8699ZM1227 106.15H1229.44V99.4199H1231.3L1235.75 106.15H1238.67L1234.25 99.3499C1236.4 99.0799 1238.19 97.9299 1238.19 95.0099C1238.19 92.0899 1236.43 90.6599 1232.89 90.6599H1227V106.15ZM1242.68 98.3999C1242.63 100.489 1241.97 102.518 1240.78 104.234C1239.58 105.949 1237.91 107.274 1235.97 108.043C1234.02 108.813 1231.9 108.992 1229.85 108.559C1227.81 108.126 1225.93 107.101 1224.47 105.61C1223.01 104.119 1222.01 102.229 1221.62 100.178C1221.22 98.1256 1221.44 96.0022 1222.24 94.0729C1223.04 92.1436 1224.4 90.4939 1226.13 89.3302C1227.87 88.1664 1229.91 87.5402 1232 87.5299C1234.85 87.5641 1237.57 88.7284 1239.56 90.7666C1241.55 92.8049 1242.65 95.5505 1242.62 98.3999M1218.69 98.3999C1218.69 101.028 1219.47 103.596 1220.93 105.781C1222.39 107.966 1224.46 109.67 1226.89 110.676C1229.32 111.683 1231.99 111.947 1234.57 111.436C1237.14 110.925 1239.51 109.661 1241.37 107.804C1243.23 105.948 1244.5 103.582 1245.01 101.005C1245.53 98.4282 1245.27 95.7566 1244.26 93.3278C1243.26 90.8991 1241.56 88.8221 1239.38 87.3593C1237.2 85.8966 1234.63 85.1138 1232 85.1099C1230.25 85.1086 1228.52 85.4513 1226.91 86.1184C1225.3 86.7856 1223.83 87.7642 1222.59 88.9983C1221.36 90.2324 1220.38 91.6978 1219.71 93.3109C1219.04 94.9241 1218.69 96.6533 1218.69 98.3999Z" fill="#F2EFD9"/>
<path d="M560.23 211.82C552.16 200.58 541.63 194.61 527.23 194.61C516 194.61 502.66 199.88 502.66 212.52C502.66 242.71 593.59 218.14 593.59 283.79C593.59 323.79 555.32 337.85 520.92 337.85C494.92 337.85 472.46 331.18 455.26 311.85L483.34 285.52C494.23 297.46 505.47 306.24 523.34 306.24C535.63 306.24 551.43 300.24 551.43 286.92C551.43 252.17 460.5 279.56 460.5 215.3C460.5 177.74 494.2 160.89 528.25 160.89C550.72 160.89 574.6 167.89 588.3 186.52L560.23 211.82Z" fill="#F2EFD9"/>
<path d="M737.88 215.68C728.05 205.49 717.16 198.83 705.88 198.83C674.98 198.83 656.38 223.05 656.38 249.38C656.38 275.71 674.98 299.93 705.88 299.93C718.88 299.93 730.8 294.32 738.53 284.14L766.61 314.33C749.42 331.53 720.61 337.86 705.88 337.86C654.98 337.86 614.25 302.4 614.25 249.38C614.25 196.36 654.98 160.91 705.88 160.91C727.3 160.91 750.82 168.63 766.96 186.54L737.88 215.68Z" fill="#F2EFD9"/>
<path d="M942.22 333.64H902.22V306.64H901.51C893.79 323.49 877.99 337.88 849.9 337.88C804.62 337.88 788.46 305.88 788.46 271.53V165.12H830.6V250.43C830.6 269.04 832 299.94 861.49 299.94C889.22 299.94 900.11 279.58 900.11 257.11V165.11H942.24L942.22 333.64Z" fill="#F2EFD9"/>
<path d="M1203.71 84.54H1161.57V333.63H1203.71V84.54Z" fill="#F2EFD9"/>
<path d="M388.2 267.64C388.2 291.15 374.51 306.26 345.72 306.26C332.03 306.26 316.23 299.59 316.23 284.14C316.23 259.91 356.23 258.14 379.43 258.14H388.2V267.64ZM356.61 160.91C337.97 160.91 319.61 164.96 303.78 173.8V209.93C319.95 201.41 337.97 193.51 354.46 194.47C376.89 195.77 390.67 203.39 390.67 224.1V228.67H380.14C338 228.67 279.41 232.53 279.41 287.29C279.41 320.65 304.29 337.85 335.54 337.85C358.01 337.85 377.67 329.43 389.61 310.47H390.67V333.64H428.58V236.74C428.58 212.87 428.58 160.91 356.58 160.91" fill="#F2EFD9"/>
<path d="M176.26 192.85C201.54 192.85 234.2 191.45 234.2 157.75C234.2 127.21 205.05 123 181.2 123H149.57V192.85H176.26ZM105.34 85.0698H188.91C237 85.0698 280.54 101.93 280.54 157.07C280.54 219.57 233.85 230.8 181.18 230.8H149.57V333.64H105.34V85.0698Z" fill="#F2EFD9"/>
<path d="M1078.82 267.64C1078.82 291.15 1065.12 306.26 1036.34 306.26C1022.64 306.26 1006.84 299.59 1006.84 284.14C1006.84 259.91 1046.84 258.14 1070.04 258.14H1078.82V267.64ZM1047.22 160.91C1028.58 160.91 1010.22 164.96 994.4 173.8V209.93C1010.56 201.41 1028.58 193.51 1045.07 194.47C1067.5 195.77 1081.27 203.39 1081.27 224.1V228.67H1070.74C1028.61 228.67 970.02 232.53 970.02 287.29C970.02 320.65 994.9 337.85 1026.16 337.85C1048.62 337.85 1068.29 329.43 1080.23 310.47H1081.23V333.64H1119.15V236.74C1119.15 212.87 1119.15 160.91 1047.15 160.91" fill="#F2EFD9"/>
<path d="M393 504.1C396.502 504.094 399.992 503.685 403.4 502.88C406.765 502.112 409.953 500.706 412.79 498.74C415.668 496.69 418.013 493.982 419.63 490.84C421.39 487.507 422.273 483.3 422.28 478.22C422.28 472.86 421.39 468.47 419.63 465.08C418.05 461.886 415.699 459.137 412.79 457.08C409.956 455.154 406.762 453.821 403.4 453.16C399.978 452.453 396.494 452.094 393 452.09H381.86V504.09L393 504.1ZM368.51 440.68H395.13C400.104 440.694 405.057 441.336 409.87 442.59C414.69 443.808 419.228 445.951 423.23 448.9C427.295 451.958 430.597 455.914 432.88 460.46C435.347 465.233 436.583 471.153 436.59 478.22C436.751 484.104 435.478 489.938 432.88 495.22C430.563 499.771 427.267 503.753 423.23 506.88C419.233 509.936 414.703 512.222 409.87 513.62C405.085 515.039 400.121 515.77 395.13 515.79H368.49L368.51 440.68Z" fill="#BE1622"/>
<path d="M480.26 492.54H477.4C475.34 492.54 473.19 492.63 470.93 492.8C468.806 492.954 466.706 493.346 464.67 493.97C462.92 494.479 461.295 495.347 459.9 496.52C459.268 497.077 458.769 497.768 458.44 498.544C458.111 499.319 457.961 500.159 458 501C457.965 502.056 458.239 503.098 458.79 504C459.311 504.822 460.02 505.508 460.86 506C461.752 506.508 462.722 506.866 463.73 507.06C464.777 507.267 465.842 507.371 466.91 507.37C471.29 507.37 474.623 506.203 476.91 503.87C479.197 501.537 480.327 498.357 480.3 494.33L480.26 492.54ZM480.47 509.29H480.15C478.7 511.717 476.559 513.657 474 514.86C471.005 516.351 467.695 517.098 464.35 517.04C462.189 517.025 460.038 516.756 457.94 516.24C455.747 515.729 453.664 514.828 451.79 513.58C449.889 512.326 448.293 510.662 447.12 508.71C445.816 506.439 445.175 503.847 445.27 501.23C445.27 497.417 446.347 494.38 448.5 492.12C450.822 489.745 453.678 487.959 456.83 486.91C460.481 485.656 464.273 484.857 468.12 484.53C472.247 484.15 476.293 483.957 480.26 483.95V482.67C480.351 481.297 480.082 479.924 479.478 478.687C478.875 477.45 477.958 476.393 476.82 475.62C474.366 474.062 471.505 473.269 468.6 473.34C465.924 473.339 463.28 473.919 460.85 475.04C458.569 476.042 456.486 477.444 454.7 479.18L448.12 471.43C451.013 468.773 454.415 466.732 458.12 465.43C461.814 464.109 465.707 463.432 469.63 463.43C473.447 463.306 477.25 463.956 480.81 465.34C483.509 466.423 485.91 468.138 487.81 470.34C489.482 472.35 490.693 474.702 491.36 477.23C492.021 479.723 492.357 482.291 492.36 484.87V515.87H480.47V509.29Z" fill="#BE1622"/>
<path d="M507.2 464.86H519.39V473.34H519.6C520.937 470.472 522.981 467.991 525.54 466.13C528.134 464.272 531.26 463.304 534.45 463.37C534.94 463.37 535.45 463.37 536.04 463.43C536.542 463.454 537.039 463.542 537.52 463.69V475.36C536.806 475.175 536.081 475.035 535.35 474.94C534.769 474.87 534.185 474.833 533.6 474.83C531.166 474.718 528.747 475.268 526.6 476.42C524.953 477.366 523.542 478.672 522.47 480.24C521.523 481.621 520.844 483.168 520.47 484.8C520.159 486.014 519.981 487.258 519.94 488.51V515.76H507.2V464.86Z" fill="#BE1622"/>
<path d="M578.06 435.59H565.34V515.76H578.06V435.59Z" fill="#BE1622"/>
<path d="M603.51 490.1C603.515 492.114 603.818 494.115 604.41 496.04C604.977 497.957 605.892 499.754 607.11 501.34C608.343 502.922 609.897 504.224 611.67 505.16C613.725 506.135 615.971 506.641 618.245 506.641C620.519 506.641 622.765 506.135 624.82 505.16C626.595 504.226 628.15 502.924 629.38 501.34C630.597 499.752 631.515 497.956 632.09 496.04C632.677 494.114 632.98 492.113 632.99 490.1C632.982 488.103 632.679 486.118 632.09 484.21C631.506 482.316 630.588 480.541 629.38 478.97C628.156 477.393 626.599 476.106 624.82 475.2C622.756 474.258 620.514 473.77 618.245 473.77C615.976 473.77 613.734 474.258 611.67 475.2C609.893 476.109 608.337 477.396 607.11 478.97C605.901 480.539 604.986 482.315 604.41 484.21C603.816 486.117 603.513 488.103 603.51 490.1ZM590.57 490.1C590.512 486.321 591.255 482.572 592.75 479.1C594.118 475.911 596.127 473.038 598.652 470.659C601.178 468.28 604.166 466.445 607.43 465.27C614.413 462.71 622.077 462.71 629.06 465.27C632.325 466.447 635.313 468.282 637.84 470.661C640.366 473.04 642.378 475.912 643.75 479.1C645.232 482.575 645.971 486.322 645.92 490.1C645.96 493.877 645.222 497.622 643.75 501.1C642.379 504.31 640.376 507.211 637.86 509.63C635.318 512.043 632.329 513.936 629.06 515.2C622.101 517.89 614.389 517.89 607.43 515.2C604.161 513.936 601.172 512.043 598.63 509.63C596.116 507.211 594.116 504.31 592.75 501.1C591.266 497.625 590.523 493.878 590.57 490.1Z" fill="#BE1622"/>
<path d="M731.47 463.38C734.409 463.299 737.327 463.895 740 465.12C742.266 466.206 744.261 467.785 745.84 469.74C747.377 471.687 748.513 473.921 749.18 476.31C749.889 478.795 750.246 481.366 750.24 483.95V515.76H737.51V487.55C737.507 485.992 737.403 484.435 737.2 482.89C737.011 481.349 736.544 479.854 735.82 478.48C735.119 477.186 734.117 476.078 732.9 475.25C731.428 474.354 729.721 473.919 728 474C726.219 473.952 724.459 474.391 722.91 475.27C721.519 476.097 720.327 477.22 719.42 478.56C718.485 479.93 717.808 481.458 717.42 483.07C716.998 484.68 716.783 486.336 716.78 488V515.78H704V485C704.115 482.189 703.315 479.417 701.72 477.1C700.213 475.007 697.827 473.963 694.56 473.97C692.815 473.925 691.089 474.346 689.56 475.19C688.188 475.959 687.009 477.03 686.11 478.32C685.199 479.659 684.522 481.144 684.11 482.71C683.661 484.339 683.432 486.021 683.43 487.71V515.71H670.71V464.81H682.8V473H683C683.583 471.694 684.351 470.478 685.28 469.39C686.272 468.224 687.411 467.192 688.67 466.32C690.051 465.363 691.572 464.628 693.18 464.14C695.003 463.594 696.897 463.328 698.8 463.35C702.279 463.216 705.717 464.14 708.66 466C711.263 467.754 713.352 470.17 714.71 473C716.264 470.032 718.611 467.553 721.49 465.84C724.537 464.121 727.993 463.26 731.49 463.35" fill="#BE1622"/>
<path d="M800.93 485.22C800.937 483.641 800.704 482.07 800.24 480.56C799.806 479.082 799.048 477.72 798.02 476.573C796.992 475.426 795.721 474.523 794.3 473.93C792.602 473.228 790.777 472.887 788.94 472.93C785.393 472.835 781.939 474.065 779.25 476.38C777.953 477.479 776.893 478.83 776.135 480.352C775.377 481.873 774.936 483.533 774.84 485.23L800.93 485.22ZM813.65 491V492.69C813.652 493.258 813.618 493.826 813.55 494.39H774.84C774.956 496.131 775.43 497.83 776.234 499.378C777.038 500.927 778.153 502.293 779.51 503.39C780.877 504.498 782.418 505.373 784.07 505.98C785.761 506.634 787.557 506.973 789.37 506.98C792.161 507.067 794.929 506.462 797.43 505.22C799.596 504.078 801.45 502.423 802.83 500.4L811.32 507.19C806.3 513.97 799.017 517.363 789.47 517.37C785.748 517.409 782.049 516.779 778.55 515.51C775.351 514.349 772.414 512.564 769.91 510.26C767.424 507.931 765.47 505.093 764.18 501.94C762.753 498.385 762.053 494.58 762.12 490.75C762.066 486.921 762.766 483.119 764.18 479.56C765.446 476.354 767.363 473.445 769.811 471.018C772.258 468.591 775.183 466.698 778.4 465.46C781.789 464.117 785.405 463.438 789.05 463.46C792.401 463.427 795.729 464.024 798.86 465.22C801.813 466.35 804.477 468.123 806.66 470.41C808.954 472.883 810.705 475.809 811.8 479C813.099 482.865 813.724 486.924 813.65 491Z" fill="#BE1622"/>
<path d="M824.36 447.57C824.355 446.569 824.556 445.577 824.95 444.657C825.344 443.737 825.922 442.907 826.65 442.22C827.406 441.467 828.308 440.877 829.3 440.485C830.292 440.093 831.354 439.907 832.42 439.94C834.592 439.877 836.703 440.658 838.31 442.12C839.061 442.816 839.66 443.66 840.07 444.599C840.479 445.538 840.691 446.551 840.691 447.575C840.691 448.599 840.479 449.612 840.07 450.551C839.66 451.49 839.061 452.333 838.31 453.03C836.703 454.492 834.592 455.273 832.42 455.21C831.354 455.244 830.293 455.061 829.301 454.67C828.309 454.28 827.407 453.691 826.65 452.94C825.921 452.249 825.341 451.417 824.947 450.493C824.553 449.569 824.353 448.574 824.36 447.57ZM838.89 464.86V518.86C838.9 521.759 838.653 524.654 838.15 527.51C837.722 530.048 836.764 532.467 835.34 534.61C833.911 536.674 831.976 538.337 829.72 539.44C826.808 540.752 823.631 541.368 820.44 541.24C819.373 541.239 818.308 541.169 817.25 541.03C816.19 540.89 815.35 540.75 814.71 540.61L815.77 529.79C816.366 529.936 816.97 530.043 817.58 530.11C818.22 530.17 818.78 530.21 819.27 530.21C820.529 530.273 821.781 529.978 822.88 529.36C823.8 528.794 824.536 527.975 825 527C825.537 525.915 825.875 524.744 826 523.54C826.13 522.24 826.21 520.84 826.21 519.36V464.86H838.89Z" fill="#BE1622"/>
<path d="M864.34 490.1C864.345 492.114 864.648 494.115 865.24 496.04C865.806 497.96 866.725 499.757 867.95 501.34C869.176 502.924 870.728 504.227 872.5 505.16C874.555 506.135 876.801 506.641 879.075 506.641C881.349 506.641 883.595 506.135 885.65 505.16C887.426 504.224 888.984 502.922 890.22 501.34C891.434 499.752 892.349 497.956 892.92 496.04C893.512 494.115 893.815 492.114 893.82 490.1C893.817 488.103 893.514 486.117 892.92 484.21C892.34 482.316 891.425 480.542 890.22 478.97C888.99 477.395 887.43 476.108 885.65 475.2C883.586 474.258 881.344 473.77 879.075 473.77C876.806 473.77 874.564 474.258 872.5 475.2C870.739 476.121 869.203 477.418 868 479C866.784 480.566 865.865 482.342 865.29 484.24C864.696 486.147 864.393 488.133 864.39 490.13M851.45 490.13C851.392 486.351 852.135 482.602 853.63 479.13C854.998 475.941 857.007 473.068 859.532 470.689C862.058 468.31 865.046 466.476 868.31 465.3C875.293 462.74 882.957 462.74 889.94 465.3C893.207 466.473 896.197 468.307 898.724 470.686C901.252 473.065 903.262 475.94 904.63 479.13C906.12 482.603 906.863 486.351 906.81 490.13C906.852 493.908 906.109 497.654 904.63 501.13C903.26 504.338 901.26 507.238 898.75 509.66C896.203 512.071 893.211 513.963 889.94 515.23C882.981 517.92 875.269 517.92 868.31 515.23C865.043 513.962 862.054 512.07 859.51 509.66C856.996 507.241 854.996 504.34 853.63 501.13C852.146 497.655 851.403 493.909 851.45 490.13Z" fill="#BE1622"/>
<path d="M919.05 464.86H931.25V473.34H931.46C932.797 470.472 934.841 467.991 937.4 466.13C939.994 464.272 943.12 463.304 946.31 463.37C946.8 463.37 947.31 463.37 947.89 463.43C948.395 463.456 948.896 463.543 949.38 463.69V475.36C948.666 475.176 947.941 475.036 947.21 474.94C946.629 474.87 946.045 474.833 945.46 474.83C943.026 474.718 940.607 475.268 938.46 476.42C936.811 477.366 935.396 478.672 934.32 480.24C933.376 481.623 932.698 483.169 932.32 484.8C932.007 486.014 931.826 487.258 931.78 488.51V515.76H919.05V464.86Z" fill="#BE1622"/>
</svg>
