<?xml version="1.0" encoding="utf-8"?>
<!-- Generator: Adobe Illustrator 19.0.0, SVG Export Plug-In . SVG Version: 6.00 Build 0)  -->
<svg version="1.1" id="layer" xmlns="http://www.w3.org/2000/svg" xmlns:xlink="http://www.w3.org/1999/xlink" x="0px" y="0px"
	 viewBox="-153 -46 652 652" style="enable-background:new -153 -46 652 652;" xml:space="preserve">
<style type="text/css">
	.st0{fill:#C90C0F;}
	.st1{fill:#007C34;}
	.st2{fill:#3C3C3C;}
</style>
<g>
	<path class="st0" d="M-66.4,289.9c-3.4,1.7-5.5,2.7-9.6,4.5c-7.5,2.7-13,3.8-20.5,3.8c-15.4,0-25.6-4.8-27.7-13.4
		c-1-4.5-0.7-7.9,2.1-17.2l7.2-23.7h-15.7l3.1-10l66-43.3l-10.3,32.3h25l-5.8,21.3h-25.6l-4.8,15.8c-1.7,6.2-3.1,13.4,6.5,13.7
		c4.4,0.3,10.9-0.3,16.4-4.8C-60.2,269-66.4,289.9-66.4,289.9z M55,256.9c6.8-21.6-3.4-40.9-39.7-40.9s-58.8,19.2-65.6,40.9
		c-7.2,21.6,3.1,40.9,39.3,40.9C25.2,297.8,47.8,278.6,55,256.9L55,256.9z M18,256.9c-2.7,8.2-9.2,19.6-22.2,19.2
		c-14,0-12.3-11-9.6-19.2s8.2-19.2,21.9-19.2C22.5,237.7,20.8,248.7,18,256.9z M162.7,296.1h34.5l13-42.3
		c2.4-8.2,7.2-14.1,16.1-14.1c10.6,0,9.2,6.5,7.2,14.1l-13,42.3h34.9l13-42.3c2.4-8.2,7.2-14.1,16.1-14.1c10.6,0,9.2,6.5,7.2,14.1
		l-13,42.3h34.9l16.4-53.6c3.8-12.7,0.3-26.5-23.2-26.5c-22.6,0-33.2,11.3-34.9,12.4c-1.7-7.9-10.9-12.4-20.9-12.4
		c-12.6,0-23.9,3.4-33.5,12.4H217l3.1-10.3h-33.5L162.7,296.1z M167.1,256.9c6.8-21.6-3.1-40.9-39.3-40.9s-58.8,19.2-66,40.9
		c-7.2,21.6,3.1,40.9,39.3,40.9C137.4,297.8,159.9,278.6,167.1,256.9L167.1,256.9z M130.2,256.9c-2.7,8.2-8.2,19.2-22.2,19.2
		c-14,0-12.3-11-9.6-19.2c2.7-8.2,8.2-19.2,21.9-19.2C134.6,237.7,132.9,248.7,130.2,256.9z"/>
	<path class="st1" d="M418.7,193.8l-31.9,103.7h-49.8l23.7-77L418.7,193.8z"/>
	<path class="st0" d="M426.3,193.8l42.7,26.7l-24.3,77h-51.1L426.3,193.8z"/>
	<path class="st2" d="M-122.5,351.3h-8.5l10.9-35.2h12.2c6.8,0,9.5,2.7,7.1,9.7c-1,3.7-2.7,6.4-6.8,8c2,0.7,3.4,2,2.7,4.7
		c-0.7,2.7-2.4,8.7-2.7,11.1c0,0.3,0,1,0.3,1.3v0.3h-9.2v-2c1-3.3,2-6,2.4-8.4c0.3-2,0.3-3.7-1.7-3.7h-2.7
		C-118.4,337.3-122.5,351.3-122.5,351.3z M-116.4,330.9h2.7c2.4,0,3.7-2.3,4.4-4.4c1.4-4-0.3-4.4-4.4-4.4
		C-113.7,322.2-116.4,330.9-116.4,330.9z M-93.3,339.3l-1.4,4.7c-0.3,1.3,0,2.7,1.4,2.7c2.7,0,3.1-2.3,4.1-4.7h7.5
		c-1.7,6.7-6.5,9.7-12.9,10.1c-5.4,0-9.5-2-7.8-8l3.4-10.7c2-6.7,7.1-9,12.9-9c5.4,0,9.5,2,7.8,7.7l-2.4,7.4
		C-80.7,339.3-93.3,339.3-93.3,339.3z M-86.5,334.2l0.7-2.7c0.3-1,0.3-2.7-1.7-2.7c-2,0-3.1,1.7-3.7,3.4l-0.7,1.7h5.4
		C-86.5,333.9-86.5,334.2-86.5,334.2z M-63.3,332.6c0.3-1,0.3-1.7,0.3-2.3c0-0.7-0.7-1-1.7-1c-1.4,0-2.7,0.7-3.1,2.3
		c-0.3,1.3,0.7,2,1.4,2.7c4.1,2.3,9.2,3.3,7.1,9.7c-1.7,5.7-7.1,8.4-12.6,8.4c-6.1,0-9.5-2.7-7.1-8.7h7.1c-0.3,1-0.3,2-0.3,2.7
		c0,0.7,0.7,1.3,1.7,1.3c1.7,0,3.1-0.7,3.4-2.3c0.3-0.7,0-1.7-0.3-2c-2.7-1.7-6.5-2.7-8.2-5.4c-0.8-1.6-0.9-3.4-0.3-5
		c1.7-5.7,7.1-8,12.2-8c5.4,0,9.2,2.7,7.1,8.4h-6.8C-63.3,333.2-63.3,332.6-63.3,332.6z M-44,324.9l-1,3.3c2.4-2.7,4.8-3.7,7.5-4
		c5.1,0,5.1,5,3.7,9l-2.7,9c-1.4,4.4-4.1,9.7-9.5,9.7c-1.4,0-3.4-0.7-4.4-3.3l-3.4,11.4h-7.5l10.9-35.2
		C-50.4,324.9-44,324.9-44,324.9z M-41.6,334.6c0.3-1.7,1.4-4.4-0.7-4.4c-2,0-3.1,2-3.7,4.7l-2,6c-0.7,2.3-1,5,0.7,4.7
		c2.4,0,3.1-3,3.7-4.7L-41.6,334.6z M-23.9,339.3l-1.4,4.7c-0.3,1.3-0.3,2.7,1.4,2.7c2.7,0,3.1-2.3,4.1-4.7h7.5
		c-1.7,6.7-6.5,9.7-12.9,10.1c-5.4,0-9.5-2-7.8-8l3.4-10.7c2-6.7,7.1-9,12.9-9c5.4,0,9.5,2,7.8,7.7l-2.4,7.4
		C-11.3,339.3-23.9,339.3-23.9,339.3z M-17.1,334.2l0.7-2.7c0.3-1,0.3-2.7-1.7-2.7s-3.1,1.7-3.7,3.4l-0.7,1.7h5.4
		C-17.1,333.9-17.1,334.2-17.1,334.2z M-11,351.3l10.9-35.2h7.5l-5.4,17.8l7.8-8.7h8.2L7,335.6l2.7,15.7H1.9l-1.4-10.1l-1.7,1.7
		l-2.7,8.4C-3.8,351.3-11,351.3-11,351.3z M18.3,330.2l1.7-5.4H23l2.4-7.4h7.5l-2.4,7.4h3.7l-2,5.4h-3.4L24.4,344
		c-0.3,1.3,0,1.7,1,1.7h2l-1.7,5.4c-1.7,0.3-3.4,0.3-5.1,0.3c-4.1,0-5.8-2-4.4-6l4.8-15.1C21,330.2,18.3,330.2,18.3,330.2z
		 M29.5,355.7c1.4,0,2.4-0.7,3.4-1.3c1-0.7,1.7-2,2.4-3.4h-4.4l2.4-8h8.2l-2.4,8.4c-1.4,5-5.4,7-10.2,7.4
		C28.8,358.7,29.5,355.7,29.5,355.7z M80.1,342l7.5-17.1h7.1L81.5,351h-8.2l2-13.7L68.9,351h-8.2l3.1-26.1h7.5L68.2,342l8.2-17.1
		h6.5L80.1,342z M100.2,339.3l-1.4,4.7c-0.3,1.3,0,2.7,1.4,2.7c2.7,0,3.1-2.3,4.1-4.7h7.5c-1.7,6.7-6.5,9.7-12.9,10.1
		c-5.4,0-9.5-2-7.8-8l3.4-10.7c2-6.7,7.1-9,12.9-9c5.4,0,9.5,2,7.8,7.7l-2.4,7.4C112.8,339.3,100.2,339.3,100.2,339.3z M107,334.2
		l0.7-2.7c0.3-1,0.3-2.7-1.7-2.7c-2,0-3.1,1.7-3.7,3.4l-0.7,1.7h5.4C107,333.9,107,334.2,107,334.2z M128.4,324.9l-1,4
		c1.7-2.7,4.1-4.7,7.1-4.7l-2.7,8.4c-0.7,0-1.4-0.3-2.4-0.3c-2,0-3.1,0.3-4.1,2.7l-5.1,16.1h-7.5l8.2-26.1H128.4
		C128.4,324.9,128.4,324.9,128.4,324.9z M137.3,327.9c2.7,0,4.8-2,5.4-4.4h-4.1l2.4-7.4h7.5l-2.4,7.7c-1.4,4.7-5.1,6.7-9.9,7
		L137.3,327.9C137.3,327.9,137.3,327.9,137.3,327.9z M157,332.6c0.3-1,0.3-1.7,0.3-2.3c0-0.7-0.7-1-1.7-1c-1.4,0-2.7,0.7-3.1,2.3
		c-0.3,1.3,0.7,2,1.4,2.7c4.1,2.3,9.2,3.3,7.1,9.7c-1.7,5.7-7.1,8.4-12.6,8.4c-6.1,0-9.5-2.7-7.1-8.7h7.1c-0.3,1-0.3,2-0.3,2.7
		c0,0.7,0.7,1.3,1.7,1.3c1.7,0,3.1-0.7,3.4-2.3c0.3-0.7,0-1.7-0.3-2c-2.7-1.7-6.5-2.7-8.2-5.4c-0.8-1.6-0.9-3.4-0.3-5
		c1.7-5.7,7.1-8,12.2-8c5.4,0,9.2,2.7,7.1,8.4H157C157,333.2,157,332.6,157,332.6z M190.6,332.6c0.3-1,0.3-1.7,0.3-2.3
		c0-0.7-0.7-1-1.7-1c-1.4,0-2.7,0.7-3.1,2.3c-0.3,1.3,0.7,2,1.4,2.7c4.1,2.3,9.2,3.3,7.1,9.7c-1.7,5.7-7.1,8.4-12.6,8.4
		c-6.1,0-9.5-2.7-7.1-8.7h6.8c-0.3,1-0.3,2-0.3,2.7c0,0.7,0.7,1.3,1.7,1.3c1.7,0,3.1-0.7,3.4-2.3c0.3-0.7,0-1.7-0.3-2
		c-2.7-1.7-6.5-2.7-8.2-5.4c-0.8-1.6-0.9-3.4-0.3-5c1.7-5.7,7.1-8,12.2-8c5.4,0,9.2,2.7,7.1,8.4h-6.5
		C190.6,333.2,190.6,332.6,190.6,332.6z M205.9,339.3l-1.4,4.7c-0.3,1.3,0,2.7,1.4,2.7c2.7,0,3.1-2.3,4.1-4.7h7.5
		c-1.7,6.7-6.5,9.7-12.9,10.1c-5.4,0-9.5-2-7.8-8l3.4-10.7c2-6.7,7.1-9,12.9-9c5.4,0,9.5,2,7.8,7.7l-2.4,7.4
		C218.5,339.3,205.9,339.3,205.9,339.3z M212.7,334.2l0.7-2.7c0.3-1,0.3-2.7-1.7-2.7s-3.1,1.7-3.7,3.4l-0.7,1.7h5.4
		C212.7,333.9,212.7,334.2,212.7,334.2z M219.9,351.3l10.9-35.2h7.5l-10.9,35.2H219.9z M247.8,327.2c2-2.3,4.4-3,6.8-3
		c5.1,0,5.1,5,3.7,9l-2.7,9c-1.4,4.4-4.1,9.7-9.5,9.7c-2.4,0-4.4-1.3-4.8-3.7l-1,3h-7.5l10.9-35.2h7.5
		C251.2,316.2,247.8,327.2,247.8,327.2z M250.1,334.6c0.3-1.7,1.4-4.4-0.7-4.4c-2,0-3.1,2-3.7,4.7l-2,6c-0.7,2.3-1,5,0.7,4.7
		c2.4,0,3.1-3,3.7-4.7C248.1,340.9,250.1,334.6,250.1,334.6z M267.5,339.3l-1.4,4.7c-0.3,1.3,0,2.7,1.4,2.7c2.7,0,3.1-2.3,4.1-4.7
		h7.5c-1.7,6.7-6.5,9.7-12.9,10.1c-5.4,0-9.5-2-7.8-8l3.4-10.7c2-6.7,7.1-9,12.9-9c5.4,0,9.5,2,7.8,7.7l-2.4,7.4
		C280.1,339.3,267.5,339.3,267.5,339.3z M274.3,334.2l0.7-2.7c0.3-1,0.3-2.7-1.7-2.7c-2,0-3.1,1.7-3.7,3.4l-0.7,1.7h5.4V334.2z
		 M295.7,324.9l-1.4,4c1.7-2.7,4.1-4.7,7.1-4.7l-2.7,8.4c-0.7,0-1.4-0.3-2.4-0.3c-2,0-3.1,0.3-4.1,2.7l-5.1,16.1h-6.8l8.2-26.1
		L295.7,324.9L295.7,324.9z M323.6,324.9l-1,3c2-2.3,4.8-3.7,6.8-3.7c2.4,0,4.4,1.3,4.4,3.4c2-2.3,4.4-3.3,6.5-3.3
		c3.4,0,6.1,2,5.1,5.4l-6.8,21.4h-7.5l5.8-18.8c0.3-1.3,0-2.3-1.4-2c-1.4,0-2.4,0.7-2.7,2L327,351h-7.5l5.8-18.8c0-1,0-2-1-2
		c-1.4,0-2.4,0.7-3.1,2l-5.8,18.8h-7.5l8.2-26.1H323.6z M356.6,349c-2.7,2-4.4,3.3-7.5,3.3c-4.4,0-6.1-3-4.8-7c1.7-6,5.8-7.7,9.2-9
		c3.7-1,7.1-1.3,7.8-4.4c0.3-1.3,0-2.7-1.7-2.7c-2.7,0-3.4,2-4.1,4h-7.1c1-3.3,2.7-5.7,4.8-7c2.4-1.3,5.1-2,8.2-2
		c7.5,0,9.5,2.3,7.8,8l-5.1,16.1c-0.3,1-0.3,2-0.3,3h-7.5L356.6,349L356.6,349L356.6,349z M359.6,338.6c-1.7,0.7-3.4,1.3-4.4,2
		c-1,0.7-2.4,1.7-2.7,3.3c-0.7,1.7,0,2.7,2,2.7c2.4,0,3.4-2.3,4.1-4L359.6,338.6L359.6,338.6z M385.1,334.6v-0.3c0-1,0.7-2,0.7-3
		c0-1-0.3-1.7-1.7-1.7c-2,0-2.7,1.3-3.4,3.3l-3.4,10.7c-0.3,1.7-0.3,3,1.4,3c2.7,0,3.7-4,4.1-6h7.5c-0.3,1.7-1.7,4.7-2.4,6.4
		c-2,3.3-5.4,4.7-8.8,5h-2.7c-5.4,0-8.8-2-6.8-8l3.4-10.7c2-6.7,6.1-9,12.2-9c7.5,0,9.5,3.4,6.8,10.4H385.1z M406.5,326.9
		c2.4-2.3,4.4-2.7,6.8-2.7c3.7,0,5.4,2.7,4.1,6l-6.5,21.1h-7.5l5.8-18.8c0.3-1.3,0.3-2.3-1.4-2.3c-1.7,0-2.7,1.3-3.1,2.7l-5.4,18.1
		h-7.5l10.9-35.2h7.5L406.5,326.9z M420.5,330.2l1.7-5.4h3.1l2.4-7.4h7.5l-2.4,7.4h3.7l-1.7,5.4H431l-4.4,13.7c-0.3,1.3,0,1.7,1,1.7
		h2L428,351c-1.7,0.3-3.4,0.3-5.1,0.3c-4.1,0-5.8-2-4.4-6l4.8-15.1C423.2,330.2,420.5,330.2,420.5,330.2z M433.4,351.3l2.4-8h8.2
		l-2.4,8H433.4z"/>
</g>
</svg>
